<?xml version="1.0" encoding="utf-8"?>
<!-- Generator: Adobe Illustrator 21.0.0, SVG Export Plug-In . SVG Version: 6.00 Build 0)  -->
<svg version="1.1" id="Layer_1" xmlns="http://www.w3.org/2000/svg" xmlns:xlink="http://www.w3.org/1999/xlink" x="0px" y="0px"
	 viewBox="0 0 50 50" style="enable-background:new 0 0 50 50;" xml:space="preserve">
<style type="text/css">
	.st0{fill:#FFFFFF;}
	.st1{fill:#FACDD3;}
	.st2{fill:#EB82A8;}
	.st3{fill:#E25A7C;}
	.st4{fill:#F37F20;}
	.st5{fill:#FDC117;}
	.st6{fill:#D9ECF9;}
</style>
<path class="st0" d="M50,25c0,3.7-0.8,7.1-2.2,10.3c0,0,0,0,0,0c-1.4,3-3.3,5.8-5.7,8c-0.3,0.3-0.5,0.5-0.8,0.7
	c-4.4,3.7-10,6-16.2,6C11.2,50,0,38.8,0,25S11.2,0,25,0S50,11.2,50,25z"/>
<g>
	<g id="XMLID_1078_">
		<g id="XMLID_1085_">
			<path class="st1" d="M46.3,33.4c0.5,0.6,1,1.2,1.5,1.8c0,0,0,0,0,0c-1.4,3-3.3,5.8-5.7,8c-0.3,0.3-0.5,0.5-0.8,0.7h-1l-0.3-0.7
				l-3.4-6.9c1.5-3.3,2.9-6.6,4.3-9.8c0,0,0,0,0,0c0,0,0.1,0.1,0.1,0.1c0,0,0,0,0,0c0.1,0.1,0.1,0.2,0.2,0.2
				c0.1,0.1,0.2,0.2,0.3,0.4c0.4,0.4,0.7,0.9,1.1,1.3c0.7,0.9,1.4,1.8,2.2,2.7c0.1,0.1,0.2,0.3,0.3,0.4c0.4,0.5,0.6,0.8,0.6,0.8
				c0,0,0.1,0.1,0.2,0.3c0.1,0.1,0.2,0.2,0.3,0.4C46.2,33.3,46.3,33.4,46.3,33.4z"/>
			<path class="st2" d="M47.8,35.3c-1.4,3-3.3,5.8-5.7,8h-2.3l-3.2-6.9c1.5-3.3,2.9-6.6,4.3-9.8c0,0,0,0,0,0c0,0,0.1,0.1,0.1,0.1
				c0,0,0,0,0,0c0,0.1,0.1,0.1,0.2,0.2c0.1,0.1,0.2,0.2,0.3,0.4c0.8,1,2.3,2.8,3.2,4c0.1,0.2,0.2,0.3,0.3,0.4
				c0.4,0.5,0.6,0.8,0.6,0.8c0,0,0.1,0.1,0.2,0.3c0.1,0.1,0.2,0.2,0.3,0.4c0,0,0.1,0.1,0.1,0.1C46.7,34,47.3,34.7,47.8,35.3z"/>
			<path id="XMLID_1091_" class="st1" d="M36.7,24.2c0,0-2.9-4.1-7.5-1.9c-3.5,1.7-6.4,0.2-6.9,1.6c-0.5,1.5,3.3,2.6,5.9,2.4
				c0,0-5.6,4.8-6.6,8.4c-1,3.6,3,0.5,3,0.5s-2.5,2.6-1.7,3.5c0.9,1.1,2.6,0.4,3.5-0.5c0,0-0.2,1.7,1.4,1.5c1-0.2,3.1-1.8,3.1-1.8
				s-1.6,2-0.4,2.2c1.2,0.3,3-0.6,6-3.7C39.4,33.3,46.2,27.2,36.7,24.2z"/>
			<g id="XMLID_1090_">
				<path id="XMLID_366_" class="st3" d="M24.7,35.3c-0.1,0-0.1,0-0.2-0.1c-0.1-0.1-0.2-0.3-0.1-0.4l1.9-2.4
					c0.1-0.1,0.3-0.2,0.4-0.1s0.2,0.3,0.1,0.4l-1.9,2.4C24.8,35.3,24.7,35.3,24.7,35.3z"/>
			</g>
			<g id="XMLID_1089_">
				<path id="XMLID_364_" class="st3" d="M26.5,38.4c-0.1,0-0.1,0-0.2-0.1c-0.1-0.1-0.2-0.3-0.1-0.4l2.8-3.7
					c0.1-0.1,0.3-0.2,0.4-0.1c0.1,0.1,0.2,0.3,0.1,0.4l-2.8,3.7C26.7,38.3,26.6,38.4,26.5,38.4z"/>
			</g>
			<g id="XMLID_1088_">
				<path id="XMLID_355_" class="st3" d="M30.9,38.1c-0.1,0-0.1,0-0.2-0.1c-0.1-0.1-0.2-0.3-0.1-0.4l1.5-2.3
					c0.1-0.1,0.3-0.2,0.4-0.1c0.1,0.1,0.2,0.3,0.1,0.4L31.2,38C31.1,38.1,31,38.1,30.9,38.1z"/>
			</g>
			<g id="XMLID_1087_">
				<path id="XMLID_354_" class="st3" d="M33.9,36.3c-0.1,0-0.1,0-0.1,0L25.3,32c-0.2-0.1-0.2-0.3-0.1-0.4c0.1-0.2,0.3-0.2,0.4-0.1
					l8.4,4.3c0.2,0.1,0.2,0.3,0.1,0.4C34.1,36.2,34,36.3,33.9,36.3z"/>
			</g>
			<g id="XMLID_1086_">
				<path id="XMLID_353_" class="st3" d="M30.4,28.5c-0.6,0-1.2-0.2-1.6-0.5c-0.8-0.6-0.9-1.6-0.9-1.7c0-0.2,0.1-0.3,0.3-0.3
					s0.3,0.1,0.3,0.3l0,0c0,0,0.1,0.8,0.6,1.2c0.4,0.3,1,0.4,1.8,0.3c0.2,0,0.3,0.1,0.4,0.2c0,0.2-0.1,0.3-0.3,0.4
					C30.8,28.5,30.6,28.5,30.4,28.5z"/>
			</g>
		</g>
	</g>
	<path id="XMLID_1076_" class="st0" d="M30.1,20.6c0,0-2,4.6,0.2,4.6C32.5,25.1,30.1,20.6,30.1,20.6z"/>
	<g id="XMLID_1096_">
		<polygon id="XMLID_1073_" class="st4" points="19.1,19.4 17.8,18.9 19.4,14.4 20.7,14.8 		"/>
		<g id="XMLID_1070_">
			<path id="XMLID_1072_" class="st5" d="M25.2,16.5l-8-2.8l0.4-1.1c0.5,0,1.3,0.1,2.2,0.4c0.8,0.3,1.4,0.6,1.7,0.8
				c0.8,0.5,2.1,1.2,4,1.8C25.4,15.9,25.3,16.2,25.2,16.5z"/>
			<polygon id="XMLID_1071_" class="st5" points="21.3,15.9 18.3,14.9 18.5,14.2 21.5,15.2 			"/>
		</g>
		<polygon id="XMLID_1068_" class="st5" points="20.7,18.9 16.7,17.6 17.3,16.1 21.2,17.5 		"/>
		<path id="XMLID_985_" class="st6" d="M20.7,24.9c-0.5,0.6-1.2,1-1.6,1.7c0,0.1-0.1,0.1-0.1,0.2c-0.4,0.7-0.4,1.5-0.3,2.2
			c0.1,0.8,0.3,1.7,0.3,2.5c0.1,1.4-0.5,2.9-1.4,4c-0.9,1.1-2.2,1.9-3.7,2.1c-1.9-0.7-3.7-1.5-5.6-2.2c-0.9-1.2-1.3-2.6-1.2-4.1
			C7.3,30,8,28.6,9,27.6c0.6-0.6,1.3-1.1,1.9-1.6c0.5-0.4,1-0.9,1.2-1.6c0.1-0.2,0.1-0.3,0.2-0.5c0.2-0.8,0-1.5,0-2.3
			c0-0.4,0.2-1.8,1.4-2.9c1.2-1.1,2.6-1.2,3.1-1.2c0.6,0.2,1.2,0.4,1.7,0.6l0,0c0.7,0.2,1.4,0.5,2.1,0.7c0.3,0.4,1,1.5,1,2.9
			C21.7,22.1,21.8,23.7,20.7,24.9z"/>
		<path id="XMLID_983_" class="st5" d="M19,31.5c0.1,2.2-1.4,4-1.4,4c-0.9,1.1-2.2,1.9-3.7,2.1c-1.9-0.7-3.7-1.5-5.6-2.2
			c-0.9-1.2-1.3-2.6-1.2-4.1C7.3,30,8,28.6,9,27.6c0.6-0.6,1.3-1.1,1.9-1.6c0.5-0.4,1-0.9,1.2-1.6c2.5,0.5,5.1,0.9,7.6,1.4
			c-0.1,0.1-0.2,0.2-0.3,0.4c0,0-0.2,0.3-0.4,0.6c-0.4,0.8-0.3,1.9-0.3,2.2c0,0.2,0.1,0.5,0.1,0.8c0.1,0.4,0.1,0.4,0.1,0.7
			C19,30.6,19,31,19,31.5z"/>
	</g>
</g>
</svg>
