<?xml version="1.0" encoding="utf-8"?>
<!-- Generator: Adobe Illustrator 21.0.0, SVG Export Plug-In . SVG Version: 6.00 Build 0)  -->
<svg version="1.1" id="Layer_1" xmlns="http://www.w3.org/2000/svg" xmlns:xlink="http://www.w3.org/1999/xlink" x="0px" y="0px"
	 viewBox="0 0 50 50" style="enable-background:new 0 0 50 50;" xml:space="preserve">
<style type="text/css">
	.st0{fill:none;}
	.st1{fill:#FFFFFF;}
	.st2{fill:#E46C25;}
	.st3{fill:#FDC117;}
	.st4{opacity:0.4;fill:url(#XMLID_3_);enable-background:new    ;}
	.st5{fill:#F37F20;}
	.st6{fill:#FACDD3;}
	.st7{fill:#EB82A8;}
	.st8{fill:#020202;}
	.st9{fill:#E25A7C;}
	.st10{fill:#40BFB6;}
	.st11{fill:#70C9BF;}
	.st12{fill:#F05477;}
	.st13{fill:#6F4220;}
	.st14{fill:#009C9D;}
</style>
<pattern  width="272.3" height="272.3" patternUnits="userSpaceOnUse" id="XMLID_10_" viewBox="0 -272.3 272.3 272.3" style="overflow:visible;">
	<g>
		<rect x="0" y="-272.3" class="st0" width="272.3" height="272.3"/>
		<g>
			<rect x="0" y="-272.3" class="st0" width="272.3" height="272.3"/>
			<g>
				<g>
					<path class="st1" d="M118.8-237.4L118.8-237.4c-0.6,0-1,0.5-1,1l0.4,13.1c0,0.6,0.5,1,1,1c0.6,0,1-0.5,1-1l-0.4-13.1
						C119.8-236.9,119.3-237.4,118.8-237.4z"/>
				</g>
				<g>
					<path class="st1" d="M87-130.2c-0.5,0-0.9,0.3-1,0.8l-1,4.4c-0.1,0.5,0.2,1.1,0.8,1.2c0.5,0.1,1.1-0.2,1.2-0.8l1-4.4
						c0.1-0.5-0.2-1.1-0.8-1.2C87.2-130.2,87.1-130.2,87-130.2z"/>
				</g>
				<g>
					<path class="st1" d="M52-249.9c-0.4,0-0.8,0.3-0.9,0.7l-1.5,4.3c-0.2,0.5,0.1,1.1,0.6,1.3s1.1-0.1,1.3-0.6l1.5-4.3
						c0.2-0.5-0.1-1.1-0.6-1.3C52.2-249.9,52.1-249.9,52-249.9z"/>
				</g>
				<g>
					<path class="st1" d="M170.2-185.6c-0.1,0-0.2,0-0.3,0.1l-8,2.6c-0.5,0.2-0.8,0.7-0.6,1.3c0.2,0.5,0.7,0.8,1.3,0.6l8-2.6
						c0.5-0.2,0.8-0.7,0.6-1.3C171-185.4,170.6-185.6,170.2-185.6z"/>
				</g>
				<g>
					<path class="st1" d="M241.7-155.2c-0.2,0-0.4,0.1-0.6,0.2l-3.6,2.5c-0.4,0.3-0.6,0.9-0.2,1.4c0.3,0.5,0.9,0.6,1.4,0.2l3.6-2.5
						c0.4-0.3,0.6-0.9,0.2-1.4C242.3-155,242-155.2,241.7-155.2z"/>
				</g>
				<g>
					<path class="st1" d="M271.3-117.1c-0.4,0-0.8,0.2-0.9,0.6l-1.6,3.6c-0.2,0.5,0,1.1,0.5,1.3s1.1,0,1.3-0.5l1.6-3.6
						c0.2-0.5,0-1.1-0.5-1.3C271.5-117.1,271.4-117.1,271.3-117.1z"/>
				</g>
				<g>
					<path class="st1" d="M200.2-5.2c-0.2,0-0.4,0-0.5,0.1l-5.1,3.2c-0.5,0.3-0.6,0.9-0.3,1.4s0.9,0.6,1.4,0.3l5.1-3.2
						c0.5-0.3,0.6-0.9,0.3-1.4C200.9-5,200.6-5.2,200.2-5.2z"/>
				</g>
				<g>
					<path class="st1" d="M142.7-139.3c-0.4,0-0.7,0.2-0.9,0.6c-0.2,0.5,0,1.1,0.4,1.3l3.8,1.9c0.5,0.2,1.1,0,1.3-0.4
						c0.2-0.5,0-1.1-0.4-1.3l-3.8-1.9C143-139.3,142.9-139.3,142.7-139.3z"/>
				</g>
				<g>
					<path class="st1" d="M34.2-149.2c-0.2,0-0.4,0-0.5,0.1c-0.5,0.3-0.6,0.9-0.3,1.4l5.3,8.7c0.3,0.5,0.9,0.6,1.4,0.3
						s0.6-0.9,0.3-1.4l-5.3-8.7C34.8-149,34.5-149.2,34.2-149.2z"/>
				</g>
				<g>
					<path class="st1" d="M35.5-5.2c-0.5,0-1,0.4-1,0.9c0,0.6,0.4,1,0.9,1.1l15,1.1c0.6,0,1-0.4,1.1-0.9c0-0.6-0.4-1-0.9-1.1
						L35.5-5.2C35.6-5.2,35.6-5.2,35.5-5.2z"/>
				</g>
				<g>
					<path class="st1" d="M248.8-107.6c-0.3,0-0.6,0.2-0.8,0.4l-2.5,3.7c-0.3,0.5-0.2,1.1,0.3,1.4c0.5,0.3,1.1,0.2,1.4-0.3l2.5-3.7
						c0.3-0.5,0.2-1.1-0.3-1.4C249.2-107.5,249-107.6,248.8-107.6z"/>
				</g>
				<g>
					<path class="st1" d="M107.5-117.4c-0.3,0-0.5,0.1-0.7,0.3c-0.4,0.4-0.4,1,0,1.4l1.9,1.8c0.4,0.4,1,0.4,1.4,0s0.4-1,0-1.4
						l-1.9-1.8C108-117.3,107.7-117.4,107.5-117.4z"/>
				</g>
				<g>
					<path class="st1" d="M247.1-60.5c-0.1,0-0.2,0-0.2,0c-0.5,0.1-0.9,0.7-0.7,1.2L247-56c0.1,0.5,0.7,0.9,1.2,0.7
						c0.5-0.1,0.9-0.7,0.7-1.2l-0.8-3.3C248-60.2,247.6-60.5,247.1-60.5z"/>
				</g>
				<g>
					<path class="st1" d="M63.9-182.8c-0.2,0-0.3,0-0.5,0.1l-2.6,1.5c-0.5,0.3-0.6,0.9-0.4,1.4c0.3,0.5,0.9,0.6,1.4,0.4l2.6-1.5
						c0.5-0.3,0.6-0.9,0.4-1.4C64.6-182.6,64.3-182.8,63.9-182.8z"/>
				</g>
				<g>
					<path class="st1" d="M258.3-124.2h-0.1l-2.6,0.3c-0.5,0.1-0.9,0.6-0.9,1.1c0.1,0.5,0.6,0.9,1.1,0.9l2.6-0.3
						c0.5-0.1,0.9-0.6,0.9-1.1C259.2-123.8,258.8-124.2,258.3-124.2z"/>
				</g>
				<g>
					<path class="st1" d="M219.1-140.2c-0.2,0-0.4,0.1-0.6,0.2l-8,5.4c-0.5,0.3-0.6,0.9-0.3,1.4s0.9,0.6,1.4,0.3l8-5.4
						c0.5-0.3,0.6-0.9,0.3-1.4C219.7-140,219.4-140.2,219.1-140.2z"/>
				</g>
				<g>
					<path class="st1" d="M125.4-6.7c-0.4,0-0.7,0.2-0.9,0.5c-0.3,0.5-0.1,1.1,0.4,1.3l6.7,3.5c0.5,0.3,1.1,0.1,1.3-0.4
						c0.3-0.5,0.1-1.1-0.4-1.3l-6.7-3.5C125.7-6.6,125.6-6.7,125.4-6.7z"/>
				</g>
				<g>
					<path class="st1" d="M187.9-103.1c-0.1,0-0.3,0-0.4,0.1l-5.7,2.4c-0.5,0.2-0.8,0.8-0.5,1.3c0.2,0.5,0.8,0.8,1.3,0.5l5.7-2.4
						c0.5-0.2,0.8-0.8,0.5-1.3C188.6-102.9,188.3-103.1,187.9-103.1z"/>
				</g>
				<g>
					<path class="st1" d="M109.9-14.9c-0.4,0-0.7,0.2-0.9,0.5l-5.8,11.1c-0.3,0.5-0.1,1.1,0.4,1.3c0.5,0.3,1.1,0.1,1.3-0.4l5.8-11.1
						c0.3-0.5,0.1-1.1-0.4-1.3C110.2-14.8,110.1-14.9,109.9-14.9z"/>
				</g>
				<g>
					<path class="st1" d="M125.4-130c-0.5,0-1,0.4-1,1l-0.2,3.7c0,0.6,0.4,1,1,1c0.5,0,1-0.4,1-1l0.2-3.7
						C126.5-129.5,126-129.9,125.4-130C125.5-130,125.5-130,125.4-130z"/>
				</g>
				<g>
					<path class="st1" d="M216-6.9c-0.2,0-0.3,0-0.5,0.1c-0.5,0.3-0.7,0.9-0.4,1.4l1.9,3.5c0.3,0.5,0.9,0.7,1.4,0.4
						c0.5-0.3,0.7-0.9,0.4-1.4l-1.9-3.5C216.7-6.7,216.4-6.9,216-6.9z"/>
				</g>
				<g>
					<path class="st1" d="M244.1-248.6c-0.5,0-0.9,0.4-1,0.9l-1,7.6c-0.1,0.5,0.3,1.1,0.9,1.1c0.5,0.1,1.1-0.3,1.1-0.9l1-7.6
						c0.1-0.5-0.3-1.1-0.9-1.1C244.2-248.6,244.1-248.6,244.1-248.6z"/>
				</g>
				<g>
					<path class="st1" d="M202.9-216.7c-0.4,0-0.9,0.3-1,0.8l-1.1,4.2c-0.1,0.5,0.2,1.1,0.7,1.2c0.5,0.1,1.1-0.2,1.2-0.7l1.1-4.2
						c0.1-0.5-0.2-1.1-0.7-1.2C203.1-216.7,203-216.7,202.9-216.7z"/>
				</g>
				<g>
					<path class="st1" d="M73.5-231.5c-0.2,0-0.4,0.1-0.6,0.2c-0.4,0.3-0.5,1-0.2,1.4l8.9,12.3c0.3,0.4,1,0.5,1.4,0.2
						c0.4-0.3,0.5-1,0.2-1.4l-8.9-12.3C74.1-231.4,73.8-231.5,73.5-231.5z"/>
				</g>
				<g>
					<path class="st1" d="M235.5-12.4c-0.1,0-0.1,0-0.2,0c-0.5,0.1-0.9,0.6-0.8,1.2l1.3,7.8c0.1,0.5,0.6,0.9,1.2,0.8
						c0.5-0.1,0.9-0.6,0.8-1.2l-1.3-7.8C236.4-12,236-12.4,235.5-12.4z"/>
				</g>
				<g>
					<path class="st1" d="M245.3-35.4c-0.5,0-0.9,0.3-1,0.8l-0.8,4.6c-0.1,0.5,0.3,1.1,0.8,1.2c0.5,0.1,1.1-0.3,1.2-0.8l0.8-4.6
						c0.1-0.5-0.3-1.1-0.8-1.2C245.4-35.4,245.3-35.4,245.3-35.4z"/>
				</g>
				<g>
					<path class="st1" d="M72.8-259c-0.5,0-0.9,0.4-1,0.8l-2.1,13.3c-0.1,0.5,0.3,1.1,0.8,1.1c0.5,0.1,1.1-0.3,1.1-0.8l2.1-13.3
						C73.8-258.4,73.4-259,72.8-259C72.9-259,72.8-259,72.8-259z"/>
				</g>
				<g>
					<path class="st1" d="M2.3-205.7c-0.2,0-0.3,0-0.5,0.1c-0.5,0.3-0.7,0.9-0.4,1.4l1.8,3.2c0.3,0.5,0.9,0.7,1.4,0.4
						c0.5-0.3,0.7-0.9,0.4-1.4l-1.8-3.2C3-205.5,2.6-205.7,2.3-205.7z"/>
				</g>
				<g>
					<path class="st1" d="M261.5-73.6c-0.5,0-0.9,0.3-1,0.8s0.2,1.1,0.8,1.2l8.2,1.6c0.5,0.1,1.1-0.2,1.2-0.8
						c0.1-0.5-0.2-1.1-0.8-1.2l-8.2-1.6C261.6-73.6,261.5-73.6,261.5-73.6z"/>
				</g>
				<g>
					<path class="st1" d="M269-209.4c-0.5,0-0.9,0.3-1,0.8l-1.4,8.5c-0.1,0.5,0.3,1.1,0.8,1.1c0.5,0.1,1.1-0.3,1.1-0.8l1.4-8.5
						c0.1-0.5-0.3-1.1-0.8-1.1C269.2-209.4,269.1-209.4,269-209.4z"/>
				</g>
				<g>
					<path class="st1" d="M161.1-100.1c-0.3,0-0.6,0.1-0.8,0.4c-0.3,0.5-0.2,1.1,0.2,1.4l2.5,1.8c0.5,0.3,1.1,0.2,1.4-0.2
						c0.3-0.5,0.2-1.1-0.2-1.4l-2.5-1.8C161.4-100.1,161.2-100.1,161.1-100.1z"/>
				</g>
				<g>
					<path class="st1" d="M140.4-26.2c-0.4,0-0.7,0.2-0.9,0.5L138-23c-0.3,0.5-0.1,1.1,0.4,1.4c0.5,0.3,1.1,0.1,1.4-0.4l1.5-2.7
						c0.3-0.5,0.1-1.1-0.4-1.4C140.7-26.1,140.6-26.2,140.4-26.2z"/>
				</g>
				<g>
					<path class="st1" d="M90.5-105.9c-0.2,0-0.4,0-0.5,0.1c-0.5,0.3-0.6,0.9-0.3,1.4l4.3,7c0.3,0.5,0.9,0.6,1.4,0.3
						s0.6-0.9,0.3-1.4l-4.3-7C91.1-105.7,90.8-105.9,90.5-105.9z"/>
				</g>
				<g>
					<path class="st1" d="M220.7-250.5c-0.5,0-0.9,0.3-1,0.8s0.2,1.1,0.8,1.2l4,0.9c0.5,0.1,1.1-0.2,1.2-0.8
						c0.1-0.5-0.2-1.1-0.8-1.2l-4-0.9C220.9-250.5,220.8-250.5,220.7-250.5z"/>
				</g>
				<g>
					<path class="st1" d="M108-139.1c-0.2,0-0.4,0.1-0.5,0.2l-3.7,2.3c-0.5,0.3-0.6,0.9-0.3,1.4c0.3,0.5,0.9,0.6,1.4,0.3l3.7-2.3
						c0.5-0.3,0.6-0.9,0.3-1.4C108.6-138.9,108.3-139.1,108-139.1z"/>
				</g>
				<g>
					<path class="st1" d="M128.5-204.4c-0.4,0-0.8,0.3-1,0.7c-0.1,0.5,0.2,1.1,0.7,1.2l9.6,2.6c0.5,0.1,1.1-0.2,1.2-0.7
						c0.1-0.5-0.2-1.1-0.7-1.2l-9.6-2.6C128.7-204.3,128.6-204.4,128.5-204.4z"/>
				</g>
				<g>
					<path class="st1" d="M4.9-112.4c-0.1,0-0.2,0-0.3,0l-2.9,0.9c-0.5,0.2-0.8,0.7-0.7,1.2c0.2,0.5,0.7,0.8,1.2,0.7l2.9-0.9
						c0.5-0.2,0.8-0.7,0.7-1.2C5.7-112.1,5.3-112.4,4.9-112.4z"/>
				</g>
				<g>
					<path class="st1" d="M127.9-160.7c-0.4,0-0.8,0.2-0.9,0.6l-3.5,8.5c-0.2,0.5,0,1.1,0.5,1.3c0.5,0.2,1.1,0,1.3-0.5l3.5-8.5
						c0.2-0.5,0-1.1-0.5-1.3C128.1-160.7,128-160.7,127.9-160.7z"/>
				</g>
				<g>
					<path class="st1" d="M269.2-180.7c-0.1,0-0.2,0-0.4,0.1l-13.5,5.2c-0.5,0.2-0.8,0.8-0.6,1.3s0.8,0.8,1.3,0.6l13.5-5.2
						c0.5-0.2,0.8-0.8,0.6-1.3C269.9-180.5,269.6-180.7,269.2-180.7z"/>
				</g>
				<g>
					<path class="st1" d="M225.7-106c-0.3,0-0.7,0.2-0.9,0.5c-0.3,0.5-0.1,1.1,0.4,1.4l2.3,1.3c0.5,0.3,1.1,0.1,1.4-0.4
						c0.3-0.5,0.1-1.1-0.4-1.4l-2.3-1.3C226.1-106,225.9-106,225.7-106z"/>
				</g>
				<g>
					<path class="st1" d="M200.8-26.3c-0.3,0-0.7,0.2-0.9,0.5l-3.3,5.4c-0.3,0.5-0.1,1.1,0.3,1.4c0.5,0.3,1.1,0.1,1.4-0.3l3.3-5.4
						c0.3-0.5,0.1-1.1-0.3-1.4C201.2-26.2,201-26.3,200.8-26.3z"/>
				</g>
				<g>
					<path class="st1" d="M1-153.4H0.9c-0.5,0.1-0.9,0.6-0.9,1.1l0.3,2.9c0.1,0.5,0.6,0.9,1.1,0.9c0.5-0.1,0.9-0.6,0.9-1.1l-0.4-2.9
						C1.9-153,1.5-153.4,1-153.4z"/>
				</g>
				<g>
					<path class="st1" d="M260.7-228.9c-0.5,0-0.9,0.4-1,0.9s0.3,1.1,0.9,1.1l7.9,1c0.5,0.1,1.1-0.3,1.1-0.9
						c0.1-0.5-0.3-1.1-0.9-1.1l-7.9-1C260.8-228.9,260.8-228.9,260.7-228.9z"/>
				</g>
				<g>
					<path class="st1" d="M68.5-138c-0.2,0-0.4,0.1-0.5,0.2l-8.4,5.4c-0.5,0.3-0.6,0.9-0.3,1.4s0.9,0.6,1.4,0.3l8.4-5.4
						c0.5-0.3,0.6-0.9,0.3-1.4C69.2-137.8,68.8-138,68.5-138z"/>
				</g>
				<g>
					<path class="st1" d="M27.9-75.6c-0.1,0-0.2,0-0.4,0.1l-9.7,3.9c-0.5,0.2-0.8,0.8-0.6,1.3c0.2,0.5,0.8,0.8,1.3,0.6l9.7-3.9
						c0.5-0.2,0.8-0.8,0.6-1.3C28.7-75.3,28.3-75.6,27.9-75.6z"/>
				</g>
				<g>
					<path class="st1" d="M3.2-92.5L3.2-92.5c-0.6,0.1-1,0.6-0.9,1.1l0.5,3.7c0.1,0.5,0.6,0.9,1.1,0.8C4.4-87,4.8-87.5,4.7-88
						l-0.5-3.7C4.1-92.2,3.7-92.5,3.2-92.5z"/>
				</g>
				<g>
					<path class="st1" d="M55.6-269.9c-0.1,0-0.2,0-0.3,0l-5.5,1.6c-0.5,0.1-0.8,0.7-0.7,1.2s0.7,0.8,1.2,0.7l5.6-1.5
						c0.5-0.1,0.8-0.7,0.7-1.2C56.5-269.6,56.1-269.9,55.6-269.9z"/>
				</g>
				<g>
					<path class="st1" d="M269.3-270.5c-0.4,0-0.7,0.2-0.9,0.5l-1.5,2.8c-0.3,0.5-0.1,1.1,0.4,1.4s1.1,0.1,1.4-0.4l1.5-2.8
						c0.3-0.5,0.1-1.1-0.4-1.4C269.6-270.5,269.5-270.5,269.3-270.5z"/>
				</g>
				<g>
					<path class="st1" d="M175.1-148.9c-0.2,0-0.5,0.1-0.7,0.3l-7.5,6.9c-0.4,0.4-0.4,1-0.1,1.4c0.4,0.4,1,0.4,1.4,0.1l7.5-6.9
						c0.4-0.4,0.4-1,0.1-1.4C175.6-148.8,175.4-148.9,175.1-148.9z"/>
				</g>
				<g>
					<path class="st1" d="M69-205.8c0,0-0.1,0-0.2,0c-0.5,0.1-0.9,0.6-0.8,1.1l0.8,5c0.1,0.5,0.6,0.9,1.1,0.8
						c0.5-0.1,0.9-0.6,0.8-1.1l-0.8-5C70-205.4,69.5-205.8,69-205.8z"/>
				</g>
				<g>
					<path class="st1" d="M213.6-187.2c-0.5,0-0.9,0.4-1,0.8c-0.1,0.5,0.3,1.1,0.8,1.1l2.7,0.4c0.5,0.1,1.1-0.3,1.1-0.8
						c0.1-0.5-0.3-1.1-0.8-1.1l-2.7-0.4C213.7-187.2,213.7-187.2,213.6-187.2z"/>
				</g>
				<g>
					<path class="st1" d="M17.5-160.7c-0.2,0-0.4,0.1-0.6,0.2c-0.4,0.4-0.5,1-0.1,1.4l2.2,2.6c0.4,0.4,1,0.5,1.4,0.1
						c0.4-0.4,0.5-1,0.1-1.4l-2.2-2.6C18.1-160.6,17.8-160.7,17.5-160.7z"/>
				</g>
				<g>
					<path class="st1" d="M268.7-53.9h-0.1l-3.2,0.3c-0.5,0.1-0.9,0.6-0.9,1.1c0.1,0.5,0.5,0.9,1.1,0.9l3.2-0.3
						c0.5-0.1,0.9-0.6,0.9-1.1C269.6-53.5,269.2-53.9,268.7-53.9z"/>
				</g>
				<g>
					<path class="st1" d="M178.4-7.2c-0.4,0-0.7,0.2-0.9,0.6l-2,3.9c-0.2,0.5,0,1.1,0.5,1.3c0.5,0.2,1.1,0,1.3-0.5l2-3.9
						c0.2-0.5,0-1.1-0.5-1.3C178.7-7.1,178.5-7.2,178.4-7.2z"/>
				</g>
				<g>
					<path class="st1" d="M35.6-53.8c-0.1,0-0.2,0-0.3,0l-11.1,3.4c-0.5,0.2-0.8,0.7-0.7,1.2c0.2,0.5,0.7,0.8,1.2,0.7l11.1-3.4
						c0.5-0.2,0.8-0.7,0.7-1.2C36.5-53.6,36.1-53.8,35.6-53.8z"/>
				</g>
				<g>
					<path class="st1" d="M266.8-98.4c-0.1,0-0.2,0-0.3,0.1c-0.5,0.2-0.8,0.7-0.6,1.3l2.3,6.8c0.2,0.5,0.7,0.8,1.3,0.6
						c0.5-0.2,0.8-0.7,0.6-1.3l-2.3-6.8C267.6-98.1,267.2-98.4,266.8-98.4z"/>
				</g>
				<g>
					<path class="st1" d="M247.4-271.5c-0.2,0-0.4,0.1-0.5,0.2c-0.5,0.3-0.6,0.9-0.3,1.4l3.3,5.2c0.3,0.5,0.9,0.6,1.4,0.3
						c0.5-0.3,0.6-0.9,0.3-1.4l-3.3-5.2C248.1-271.3,247.8-271.5,247.4-271.5z"/>
				</g>
				<g>
					<path class="st1" d="M142.7-223.4c-0.3,0-0.6,0.1-0.8,0.3l-4,4.7c-0.4,0.4-0.3,1.1,0.1,1.4c0.4,0.4,1.1,0.3,1.4-0.1l4-4.7
						c0.4-0.4,0.3-1.1-0.1-1.4C143.1-223.3,142.9-223.4,142.7-223.4z"/>
				</g>
				<g>
					<path class="st1" d="M6-131.5c-0.5,0-0.9,0.4-1,0.9s0.3,1,0.9,1.1l12.5,1.5c0.5,0.1,1-0.3,1.1-0.9c0.1-0.5-0.3-1-0.9-1.1
						l-12.5-1.5C6.1-131.5,6.1-131.5,6-131.5z"/>
				</g>
				<g>
					<path class="st1" d="M192-83.2c-0.5,0-0.9,0.3-1,0.8l-1.5,7.9c-0.1,0.5,0.3,1.1,0.8,1.2c0.5,0.1,1.1-0.3,1.2-0.8L193-82
						c0.1-0.5-0.3-1.1-0.8-1.2C192.1-83.2,192.1-83.2,192-83.2z"/>
				</g>
				<g>
					<path class="st1" d="M88.1-182.8c-0.2,0-0.5,0.1-0.7,0.2l-7,6.3c-0.4,0.4-0.5,1-0.1,1.4c0.4,0.4,1,0.5,1.4,0.1l7.1-6.2
						c0.4-0.4,0.5-1,0.1-1.4C88.7-182.7,88.4-182.8,88.1-182.8z"/>
				</g>
				<g>
					<path class="st1" d="M201.2-242.2c-0.1,0-0.3,0-0.4,0.1c-0.5,0.2-0.7,0.8-0.5,1.3l3.4,7.7c0.2,0.5,0.8,0.7,1.3,0.5
						s0.7-0.8,0.5-1.3l-3.4-7.7C201.9-241.9,201.5-242.2,201.2-242.2z"/>
				</g>
				<g>
					<path class="st1" d="M157.4-54.7c-0.4,0-0.8,0.3-1,0.7l-3.8,13.2c-0.2,0.5,0.2,1.1,0.7,1.2c0.5,0.2,1.1-0.2,1.2-0.7l3.8-13.2
						c0.2-0.5-0.2-1.1-0.7-1.2C157.6-54.7,157.5-54.7,157.4-54.7z"/>
				</g>
				<g>
					<path class="st1" d="M62.8-162.9c-0.3,0-0.6,0.1-0.8,0.4l-6,8c-0.3,0.4-0.2,1.1,0.2,1.4s1.1,0.2,1.4-0.2l6-8
						c0.3-0.4,0.2-1.1-0.2-1.4C63.2-162.8,63-162.9,62.8-162.9z"/>
				</g>
				<g>
					<path class="st1" d="M1.9-70.9c-0.5,0-1,0.4-1,1l-0.4,9.8c0,0.6,0.4,1,1,1c0.5,0,1-0.4,1-1l0.4-9.8C3-70.4,2.5-70.9,1.9-70.9
						C2-70.9,1.9-70.9,1.9-70.9z"/>
				</g>
				<g>
					<path class="st1" d="M178.8-169c-0.2,0-0.5,0.1-0.7,0.3c-0.4,0.4-0.4,1-0.1,1.4l2.3,2.5c0.4,0.4,1,0.4,1.4,0.1
						c0.4-0.4,0.4-1,0.1-1.4l-2.3-2.5C179.3-168.9,179-169,178.8-169z"/>
				</g>
				<g>
					<path class="st1" d="M164.5-125.2c-0.1,0-0.2,0-0.3,0.1c-0.5,0.2-0.8,0.8-0.6,1.3l3.1,9c0.2,0.5,0.8,0.8,1.3,0.6
						s0.8-0.8,0.6-1.3l-3.1-9C165.3-125,164.9-125.2,164.5-125.2z"/>
				</g>
				<g>
					<path class="st1" d="M225.9-166.8c-0.1,0-0.3,0-0.4,0.1l-11.8,4.8c-0.5,0.2-0.8,0.8-0.6,1.3s0.8,0.8,1.3,0.6l11.8-4.8
						c0.5-0.2,0.8-0.8,0.6-1.3C226.7-166.6,226.3-166.8,225.9-166.8z"/>
				</g>
				<g>
					<path class="st1" d="M206.9-114.8c-0.5,0-0.9,0.4-1,0.9l-0.9,6.7c-0.1,0.5,0.3,1.1,0.9,1.1c0.5,0.1,1.1-0.3,1.1-0.9l0.9-6.7
						c0.1-0.5-0.3-1.1-0.9-1.1C207-114.8,207-114.8,206.9-114.8z"/>
				</g>
				<g>
					<path class="st1" d="M53.4-82.7c-0.1,0-0.3,0-0.4,0.1L42.8-78c-0.5,0.2-0.7,0.8-0.5,1.3s0.8,0.7,1.3,0.5l10.2-4.6
						c0.5-0.2,0.7-0.8,0.5-1.3C54.1-82.5,53.7-82.7,53.4-82.7z"/>
				</g>
				<g>
					<path class="st1" d="M113.6-195.5c-0.1,0-0.1,0-0.2,0c-0.5,0.1-0.9,0.6-0.8,1.2l2.4,11.9c0.1,0.5,0.6,0.9,1.2,0.8
						c0.5-0.1,0.9-0.6,0.8-1.2l-2.4-11.9C114.5-195.2,114.1-195.5,113.6-195.5z"/>
				</g>
				<g>
					<path class="st1" d="M117.9-32.9c-0.4,0-0.8,0.3-0.9,0.7c-0.2,0.5,0.1,1.1,0.6,1.3l4.5,1.6c0.5,0.2,1.1-0.1,1.3-0.6
						c0.2-0.5-0.1-1.1-0.6-1.3l-4.5-1.6C118.2-32.9,118.1-32.9,117.9-32.9z"/>
				</g>
				<g>
					<path class="st1" d="M117.6-97.9c-0.5,0-1,0.4-1,1s0.4,1,1,1l11.1,0.1c0.6,0,1-0.4,1-1s-0.4-1-1-1L117.6-97.9L117.6-97.9z"/>
				</g>
				<g>
					<path class="st1" d="M235.7-190.3c-0.1,0-0.2,0-0.3,0c-0.5,0.2-0.8,0.7-0.7,1.2l3.9,13.4c0.2,0.5,0.7,0.8,1.2,0.7
						c0.5-0.2,0.8-0.7,0.7-1.2l-3.9-13.4C236.5-190,236.1-190.3,235.7-190.3z"/>
				</g>
				<g>
					<path class="st1" d="M222.1-229.5c-0.4,0-0.8,0.2-0.9,0.6c-0.2,0.5,0.1,1.1,0.6,1.3l6.5,2.6c0.5,0.2,1.1-0.1,1.3-0.6
						s-0.1-1.1-0.6-1.3l-6.5-2.6C222.3-229.5,222.2-229.5,222.1-229.5z"/>
				</g>
				<g>
					<path class="st1" d="M180.7-60.8c-0.3,0-0.6,0.2-0.8,0.4l-2,2.9c-0.3,0.5-0.2,1.1,0.3,1.4c0.5,0.3,1.1,0.2,1.4-0.3l2-2.9
						c0.3-0.5,0.2-1.1-0.3-1.4C181.1-60.7,180.9-60.8,180.7-60.8z"/>
				</g>
				<g>
					<path class="st1" d="M104.5-82.2c-0.3,0-0.7,0.2-0.9,0.5l-5.6,10c-0.3,0.5-0.1,1.1,0.4,1.4c0.5,0.3,1.1,0.1,1.4-0.4l5.6-10
						c0.3-0.5,0.1-1.1-0.4-1.4C104.8-82.2,104.6-82.2,104.5-82.2z"/>
				</g>
				<g>
					<path class="st1" d="M157-164.1c-0.3,0-0.5,0.1-0.7,0.3l-6.3,6.1c-0.4,0.4-0.4,1,0,1.4c0.4,0.4,1,0.4,1.4,0l6.3-6.1
						c0.4-0.4,0.4-1,0-1.4C157.5-163.9,157.3-164.1,157-164.1z"/>
				</g>
				<g>
					<path class="st1" d="M183.3-201.9c-0.3,0-0.6,0.1-0.8,0.4c-0.4,0.4-0.3,1.1,0.1,1.4l9,7.5c0.4,0.4,1.1,0.3,1.4-0.1
						c0.4-0.4,0.3-1.1-0.1-1.4l-9-7.5C183.8-201.8,183.6-201.9,183.3-201.9z"/>
				</g>
				<g>
					<path class="st1" d="M55.8-227.3c-0.1,0-0.1,0-0.2,0l-4.3,0.8c-0.5,0.1-0.9,0.6-0.8,1.2c0.1,0.5,0.6,0.9,1.2,0.8l4.3-0.8
						c0.5-0.1,0.9-0.6,0.8-1.2C56.7-226.9,56.3-227.3,55.8-227.3z"/>
				</g>
				<g>
					<path class="st1" d="M103.9-250.8c-0.2,0-0.3,0-0.5,0.1L91.1-244c-0.5,0.3-0.7,0.9-0.4,1.4c0.3,0.5,0.9,0.7,1.4,0.4l12.3-6.7
						c0.5-0.3,0.7-0.9,0.4-1.4C104.6-250.6,104.2-250.8,103.9-250.8z"/>
				</g>
				<g>
					<path class="st1" d="M170.5-80.7c-0.2,0-0.5,0.1-0.6,0.2l-6,5c-0.4,0.4-0.5,1-0.1,1.4s1,0.5,1.4,0.1l6-5c0.4-0.4,0.5-1,0.1-1.4
						C171-80.6,170.7-80.7,170.5-80.7z"/>
				</g>
				<g>
					<path class="st1" d="M271.1-139.3c-0.4,0-0.8,0.3-0.9,0.7l-1,2.7c-0.2,0.5,0.1,1.1,0.6,1.3s1.1-0.1,1.3-0.6l1-2.7
						c0.2-0.5-0.1-1.1-0.6-1.3C271.3-139.3,271.2-139.3,271.1-139.3z"/>
				</g>
				<g>
					<path class="st1" d="M51.8-39.8c-0.5,0-0.9,0.4-1,0.9l-1.4,15c-0.1,0.5,0.4,1,0.9,1.1c0.6,0.1,1-0.4,1.1-0.9l1.4-15
						C52.9-39.3,52.5-39.8,51.8-39.8C51.9-39.8,51.9-39.8,51.8-39.8z"/>
				</g>
				<g>
					<path class="st1" d="M139.6-242.4c-0.1,0-0.2,0-0.3,0l-2.4,0.8c-0.5,0.2-0.8,0.7-0.6,1.3c0.2,0.5,0.7,0.8,1.3,0.6l2.4-0.8
						c0.5-0.2,0.8-0.7,0.6-1.3C140.4-242.1,140-242.4,139.6-242.4z"/>
				</g>
				<g>
					<path class="st1" d="M125.3-76.6c-0.2,0-0.5,0.1-0.7,0.3l-2.1,1.9c-0.4,0.4-0.4,1-0.1,1.4c0.4,0.4,1,0.4,1.4,0.1l2.1-1.9
						c0.4-0.4,0.4-1,0.1-1.4C125.9-76.5,125.6-76.6,125.3-76.6z"/>
				</g>
				<g>
					<path class="st1" d="M198.1-152.6c-0.3,0-0.6,0.2-0.8,0.4l-3.7,5.4c-0.3,0.5-0.2,1.1,0.3,1.4s1.1,0.2,1.4-0.3l3.7-5.4
						c0.3-0.5,0.2-1.1-0.3-1.4C198.4-152.5,198.2-152.6,198.1-152.6z"/>
				</g>
				<g>
					<path class="st1" d="M265.9-37L265.9-37c-0.6,0-1,0.5-1,1.1l0.8,13.6c0,0.6,0.5,1,1.1,0.9c0.6,0,1-0.5,0.9-1.1l-0.8-13.6
						C266.9-36.6,266.5-37,265.9-37z"/>
				</g>
				<g>
					<path class="st1" d="M158.5-21.2c-0.5,0-0.9,0.3-1,0.8s0.3,1.1,0.8,1.1l8.6,1.4c0.5,0.1,1.1-0.3,1.1-0.8
						c0.1-0.5-0.3-1.1-0.8-1.1l-8.6-1.4C158.6-21.2,158.6-21.2,158.5-21.2z"/>
				</g>
				<g>
					<path class="st1" d="M184.5-225.7c-0.1,0-0.3,0-0.4,0.1l-9.9,4.8c-0.5,0.2-0.7,0.8-0.5,1.3s0.8,0.7,1.3,0.5l9.9-4.8
						c0.5-0.2,0.7-0.8,0.5-1.3C185.2-225.5,184.9-225.7,184.5-225.7z"/>
				</g>
				<g>
					<path class="st1" d="M144.9-117.2c-0.3,0-0.6,0.1-0.8,0.3l-5.5,6.3c-0.4,0.4-0.3,1,0.1,1.4c0.4,0.4,1,0.3,1.4-0.1l5.5-6.3
						c0.4-0.4,0.3-1-0.1-1.4C145.3-117.1,145.1-117.2,144.9-117.2z"/>
				</g>
				<g>
					<path class="st1" d="M198.3-175.8c-0.1,0-0.2,0-0.2,0c-0.5,0.1-0.9,0.7-0.7,1.2l0.8,3.2c0.1,0.5,0.7,0.9,1.2,0.7
						c0.5-0.1,0.9-0.7,0.7-1.2l-0.8-3.2C199.2-175.5,198.8-175.8,198.3-175.8z"/>
				</g>
				<g>
					<path class="st1" d="M50-208.3c-0.5,0-0.9,0.3-1,0.8l-3,13.8c-0.1,0.5,0.2,1.1,0.8,1.2c0.5,0.1,1.1-0.2,1.2-0.8l3-13.8
						c0.1-0.5-0.2-1.1-0.8-1.2C50.1-208.3,50-208.3,50-208.3z"/>
				</g>
				<g>
					<path class="st1" d="M111.4-269.7c-0.3,0-0.5,0.1-0.7,0.3c-0.4,0.4-0.4,1,0,1.4l5.8,5.5c0.4,0.4,1,0.4,1.4,0
						c0.4-0.4,0.4-1,0-1.4l-5.8-5.5C111.9-269.6,111.7-269.7,111.4-269.7z"/>
				</g>
				<g>
					<path class="st1" d="M45.1-121.8c-0.3,0-0.5,0.1-0.7,0.3l-7.6,8.2c-0.4,0.4-0.4,1,0,1.4s1,0.4,1.4,0l7.6-8.2
						c0.4-0.4,0.4-1,0-1.4C45.6-121.7,45.3-121.8,45.1-121.8z"/>
				</g>
				<g>
					<path class="st1" d="M224.5-205.9C224.4-205.9,224.4-205.9,224.5-205.9l-7.5,0.6c-0.6,0-1,0.5-0.9,1.1c0,0.6,0.5,1,1.1,0.9
						l7.4-0.6c0.6,0,1-0.5,0.9-1.1C225.4-205.5,225-205.9,224.5-205.9z"/>
				</g>
				<g>
					<path class="st1" d="M230.5-126.4c-0.4,0-0.8,0.3-1,0.7c-0.1,0.5,0.2,1.1,0.7,1.2l7.3,2c0.5,0.1,1.1-0.2,1.2-0.7
						c0.1-0.5-0.2-1.1-0.7-1.2l-7.3-2C230.7-126.3,230.6-126.4,230.5-126.4z"/>
				</g>
				<g>
					<path class="st1" d="M224.4-270.6c-0.4,0-0.7,0.2-0.9,0.5c-0.3,0.5-0.1,1.1,0.4,1.4l3.5,1.9c0.5,0.3,1.1,0.1,1.4-0.4
						c0.3-0.5,0.1-1.1-0.4-1.4l-3.5-1.8C224.7-270.5,224.6-270.6,224.4-270.6z"/>
				</g>
				<g>
					<path class="st1" d="M247.2-85.9c-0.1,0-0.3,0-0.4,0.1l-14.1,6.7c-0.5,0.2-0.7,0.8-0.5,1.3s0.8,0.7,1.3,0.5l14.1-6.7
						c0.5-0.2,0.7-0.8,0.5-1.3C247.9-85.7,247.6-85.9,247.2-85.9z"/>
				</g>
				<g>
					<path class="st1" d="M179.8-250.1c-0.2,0-0.4,0.1-0.6,0.2c-0.4,0.3-0.5,1-0.2,1.4l3.7,4.9c0.3,0.4,1,0.5,1.4,0.2
						c0.4-0.3,0.5-1,0.2-1.4l-3.7-4.9C180.4-250,180.1-250.1,179.8-250.1z"/>
				</g>
				<g>
					<path class="st1" d="M227-58.3C227-58.3,226.9-58.3,227-58.3c-0.6,0.1-1,0.5-1,1.1l0.6,6.8c0.1,0.5,0.5,1,1.1,0.9
						s1-0.5,0.9-1.1l-0.6-6.8C227.9-57.9,227.5-58.3,227-58.3z"/>
				</g>
				<g>
					<path class="st1" d="M206.2-56.2c-0.3,0-0.6,0.1-0.8,0.4l-7.9,9.5c-0.4,0.4-0.3,1.1,0.1,1.4c0.4,0.4,1.1,0.3,1.4-0.1l7.9-9.5
						c0.4-0.4,0.3-1.1-0.1-1.4C206.6-56.1,206.4-56.2,206.2-56.2z"/>
				</g>
				<g>
					<path class="st1" d="M20.9-100.9c-0.4,0-0.7,0.2-0.9,0.5c-0.3,0.5-0.1,1.1,0.4,1.4l8.2,4.6c0.5,0.3,1.1,0.1,1.4-0.4
						s0.1-1.1-0.4-1.4l-8.2-4.6C21.2-100.9,21-100.9,20.9-100.9z"/>
				</g>
				<g>
					<path class="st1" d="M85.3-7.7c-0.5,0-0.9,0.3-1,0.8l-0.9,5.4c-0.1,0.5,0.3,1.1,0.8,1.1c0.5,0.1,1.1-0.3,1.2-0.8l0.9-5.4
						c0.1-0.5-0.3-1.1-0.8-1.1C85.4-7.7,85.3-7.7,85.3-7.7z"/>
				</g>
				<g>
					<path class="st1" d="M41.7-173.7c-0.3,0-0.6,0.1-0.8,0.4l-3.3,4.6c-0.3,0.4-0.2,1.1,0.2,1.4s1.1,0.2,1.4-0.2l3.3-4.6
						c0.3-0.4,0.2-1.1-0.2-1.4C42.1-173.6,41.9-173.7,41.7-173.7z"/>
				</g>
				<g>
					<path class="st1" d="M266.7-250.7c-0.5,0-0.9,0.4-1,0.8l-0.7,4.5c-0.1,0.5,0.3,1.1,0.8,1.1c0.5,0.1,1.1-0.3,1.1-0.8l0.7-4.5
						c0.1-0.5-0.3-1.1-0.8-1.1C266.8-250.7,266.8-250.7,266.7-250.7z"/>
				</g>
				<g>
					<path class="st1" d="M119.8-56.6c-0.4,0-0.8,0.2-0.9,0.6c-0.2,0.5,0,1.1,0.6,1.3l13.3,5.3c0.5,0.2,1.1,0,1.3-0.6
						c0.2-0.5,0-1.1-0.6-1.3l-13.3-5.3C120-56.6,119.9-56.6,119.8-56.6z"/>
				</g>
				<g>
					<path class="st1" d="M163.8-237.5c-0.1,0-0.3,0-0.4,0.1l-7.2,3.2c-0.5,0.2-0.7,0.8-0.5,1.3s0.8,0.7,1.3,0.5l7.2-3.2
						c0.5-0.2,0.7-0.8,0.5-1.3C164.5-237.3,164.1-237.5,163.8-237.5z"/>
				</g>
				<g>
					<path class="st1" d="M244.1-216.5c-0.2,0-0.3,0-0.5,0.1c-0.5,0.3-0.7,0.9-0.4,1.3l6.8,13.4c0.3,0.5,0.9,0.7,1.3,0.4
						c0.5-0.3,0.7-0.9,0.4-1.3l-6.8-13.4C244.8-216.3,244.4-216.5,244.1-216.5z"/>
				</g>
				<g>
					<path class="st1" d="M80.3-271.3c-0.5,0-1,0.4-1,0.9c0,0.6,0.4,1,0.9,1.1l12,0.7c0.6,0,1-0.4,1.1-0.9c0-0.6-0.4-1-0.9-1.1
						L80.3-271.3C80.4-271.3,80.3-271.3,80.3-271.3z"/>
				</g>
				<g>
					<path class="st1" d="M70.4-46.4c-0.4,0-0.8,0.3-1,0.7c-0.2,0.5,0.1,1.1,0.7,1.2L81.5-41c0.5,0.2,1.1-0.1,1.2-0.7
						c0.2-0.5-0.1-1.1-0.7-1.2l-11.4-3.5C70.6-46.4,70.5-46.4,70.4-46.4z"/>
				</g>
				<g>
					<path class="st1" d="M3.7-20.9c-0.5,0-0.9,0.3-1,0.8L0-4.8c-0.1,0.5,0.3,1.1,0.8,1.2S1.9-3.9,2-4.4l2.7-15.3
						c0.1-0.5-0.3-1.1-0.8-1.2C3.8-20.9,3.8-20.9,3.7-20.9z"/>
				</g>
				<g>
					<path class="st1" d="M103.4-169.5c-0.5,0-0.9,0.4-1,0.8l-2.2,13.6c-0.1,0.5,0.3,1.1,0.8,1.1c0.5,0.1,1.1-0.3,1.1-0.8l2.2-13.6
						C104.4-168.9,104-169.5,103.4-169.5C103.5-169.5,103.5-169.5,103.4-169.5z"/>
				</g>
				<g>
					<path class="st1" d="M190.2-127.2c-0.1,0-0.2,0-0.3,0.1l-3.8,1.2c-0.5,0.2-0.8,0.7-0.6,1.3c0.2,0.5,0.7,0.8,1.3,0.6l3.8-1.2
						c0.5-0.2,0.8-0.7,0.6-1.3C191-126.9,190.6-127.2,190.2-127.2z"/>
				</g>
				<g>
					<path class="st1" d="M78.2-67.4c-0.4,0-0.7,0.2-0.9,0.6c-0.2,0.5,0,1.1,0.5,1.3l4.6,2.2c0.5,0.2,1.1,0,1.3-0.5
						c0.2-0.5,0-1.1-0.5-1.3l-4.6-2.2C78.5-67.3,78.4-67.4,78.2-67.4z"/>
				</g>
				<g>
					<path class="st1" d="M135.3-272L135.3-272c-0.6,0-1,0.5-1,1l0.4,14.7c0,0.6,0.5,1,1,1c0.6,0,1-0.5,1-1l-0.4-14.7
						C136.3-271.6,135.9-272,135.3-272z"/>
				</g>
				<g>
					<path class="st1" d="M95.8-28.6c-0.2,0-0.5,0.1-0.7,0.2l-2,1.7c-0.4,0.4-0.5,1-0.1,1.4s1,0.5,1.4,0.1l2-1.7
						c0.4-0.4,0.5-1,0.1-1.4C96.4-28.5,96.1-28.6,95.8-28.6z"/>
				</g>
				<g>
					<path class="st1" d="M28.2-272.3c-0.3,0-0.5,0.1-0.7,0.3l-2.6,2.6c-0.4,0.4-0.4,1,0,1.4c0.4,0.4,1,0.4,1.4,0l2.6-2.6
						c0.4-0.4,0.4-1,0-1.4C28.7-272.2,28.4-272.3,28.2-272.3z"/>
				</g>
				<g>
					<path class="st1" d="M94.7-201.2c-0.1,0-0.1,0-0.2,0l-5.2,0.9c-0.5,0.1-0.9,0.6-0.8,1.2c0.1,0.5,0.6,0.9,1.2,0.8l5.2-0.9
						c0.5-0.1,0.9-0.6,0.8-1.2C95.6-200.8,95.2-201.2,94.7-201.2z"/>
				</g>
				<g>
					<path class="st1" d="M202.8-269.6c-0.5,0-1,0.4-1,0.9l-0.6,9.5c0,0.6,0.4,1,0.9,1.1c0.6,0,1-0.4,1.1-0.9l0.6-9.5
						C203.9-269.1,203.4-269.6,202.8-269.6C202.9-269.6,202.8-269.6,202.8-269.6z"/>
				</g>
				<g>
					<path class="st1" d="M6.9-239.4c-0.4,0-0.8,0.3-0.9,0.7l-4.2,12.3c-0.2,0.6,0.1,1.1,0.7,1.3c0.5,0.2,1.1-0.1,1.3-0.6l4.1-12.4
						c0.2-0.5-0.1-1.1-0.6-1.3C7.1-239.4,7-239.4,6.9-239.4z"/>
				</g>
				<g>
					<path class="st1" d="M29-193.8c-0.2,0-0.5,0.1-0.7,0.3L17.2-183c-0.4,0.4-0.4,1,0,1.4c0.4,0.4,1,0.4,1.4,0l11.1-10.6
						c0.4-0.4,0.4-1,0-1.4C29.5-193.7,29.3-193.8,29-193.8z"/>
				</g>
				<g>
					<path class="st1" d="M151.6-4.1c-0.3,0-0.7,0.2-0.9,0.5c-0.3,0.5-0.1,1.1,0.3,1.4l3.5,2.1c0.5,0.3,1.1,0.1,1.4-0.3
						c0.3-0.5,0.1-1.1-0.3-1.4l-3.5-2.1C152-4,151.8-4.1,151.6-4.1z"/>
				</g>
				<g>
					<path class="st1" d="M23.7-29.8c-0.5,0-0.9,0.3-1,0.8s0.3,1.1,0.8,1.2l7.8,1.4c0.6,0.1,1.1-0.3,1.2-0.8
						c0.1-0.5-0.3-1.1-0.8-1.2l-7.8-1.4C23.8-29.8,23.7-29.8,23.7-29.8z"/>
				</g>
				<g>
					<path class="st1" d="M159.7-270c-0.5,0-0.9,0.4-1,0.9l-1.8,12.7c-0.1,0.5,0.3,1.1,0.9,1.1c0.5,0.1,1.1-0.3,1.1-0.9l1.7-12.7
						C160.7-269.4,160.3-270,159.7-270C159.8-270,159.7-270,159.7-270z"/>
				</g>
				<g>
					<path class="st1" d="M20.1-6.9c-0.3,0-0.7,0.2-0.9,0.5l-2.3,3.9c-0.3,0.5-0.1,1.1,0.4,1.4s1.1,0.1,1.4-0.4L21-5.4
						c0.3-0.5,0.1-1.1-0.4-1.4C20.4-6.9,20.3-6.9,20.1-6.9z"/>
				</g>
				<g>
					<path class="st1" d="M30.9-252.5c-0.5,0-0.9,0.3-1,0.8l-2.4,11.6c-0.1,0.5,0.2,1.1,0.8,1.2c0.5,0.1,1.1-0.2,1.2-0.8l2.3-11.6
						c0.1-0.5-0.2-1.1-0.8-1.2H30.9z"/>
				</g>
				<g>
					<path class="st1" d="M99.8-224.2c-0.1,0-0.3,0-0.4,0.1c-0.5,0.2-0.7,0.8-0.4,1.3l2.2,4.4c0.2,0.5,0.8,0.7,1.3,0.4
						c0.5-0.2,0.7-0.8,0.4-1.3l-2.2-4.4C100.5-224,100.1-224.2,99.8-224.2z"/>
				</g>
				<g>
					<path class="st1" d="M148.5-91.4c-0.3,0-0.6,0.1-0.8,0.3l-4.1,4.7c-0.4,0.4-0.3,1,0.1,1.4c0.4,0.4,1,0.3,1.4-0.1l4.1-4.7
						c0.4-0.4,0.3-1-0.1-1.4C149-91.3,148.7-91.4,148.5-91.4z"/>
				</g>
				<g>
					<path class="st1" d="M144.8-69.9c-0.3,0-0.7,0.2-0.9,0.5l-1.7,2.8c-0.3,0.5-0.1,1.1,0.3,1.4c0.5,0.3,1.1,0.1,1.4-0.3l1.7-2.8
						c0.3-0.5,0.1-1.1-0.3-1.4C145.2-69.9,145-69.9,144.8-69.9z"/>
				</g>
				<g>
					<path class="st1" d="M225.1-31.2H225l-8.2,1.1c-0.5,0.1-0.9,0.6-0.9,1.1c0.1,0.5,0.6,0.9,1.1,0.9l8.2-1.1
						c0.5-0.1,0.9-0.6,0.9-1.1S225.6-31.2,225.1-31.2z"/>
				</g>
				<g>
					<path class="st1" d="M73.2-23.5c-0.4,0-0.7,0.2-0.9,0.6L66.1-9c-0.2,0.5,0,1.1,0.5,1.3c0.5,0.2,1.1,0,1.3-0.5l6.2-13.9
						c0.2-0.5,0-1.1-0.5-1.3C73.5-23.4,73.4-23.5,73.2-23.5z"/>
				</g>
				<g>
					<path class="st1" d="M2.3-181.4c-0.5,0-1,0.4-1,0.9l-0.6,7.6c0,0.6,0.4,1,0.9,1.1c0.6,0.1,1-0.4,1.1-0.9l0.6-7.6
						C3.4-180.8,3-181.3,2.3-181.4C2.4-181.4,2.3-181.4,2.3-181.4z"/>
				</g>
				<g>
					<path class="st1" d="M76.1-92.6c-0.4,0-0.7,0.2-0.9,0.5l-4.1,7.9c-0.3,0.5-0.1,1.1,0.4,1.3c0.5,0.3,1.1,0.1,1.3-0.4l4.1-7.9
						c0.3-0.5,0.1-1.1-0.4-1.3C76.4-92.5,76.3-92.6,76.1-92.6z"/>
				</g>
				<g>
					<path class="st1" d="M173.4-39.2c-0.3,0-0.6,0.1-0.8,0.4c-0.3,0.5-0.2,1.1,0.2,1.4l10.8,7.5c0.5,0.3,1.1,0.2,1.4-0.2
						c0.3-0.5,0.2-1.1-0.2-1.4L174-39C173.8-39.2,173.6-39.2,173.4-39.2z"/>
				</g>
				<g>
					<path class="st1" d="M32-220.7c-0.2,0-0.4,0.1-0.5,0.2l-10.2,6.6c-0.5,0.3-0.6,0.9-0.3,1.4c0.3,0.5,0.9,0.6,1.4,0.3l10.2-6.6
						c0.5-0.3,0.6-0.9,0.3-1.4C32.7-220.5,32.4-220.7,32-220.7z"/>
				</g>
				<g>
					<path class="st1" d="M3.6-269.4c-0.1,0-0.1,0-0.2,0c-0.5,0.1-0.9,0.6-0.8,1.2l1.8,11.5c0.1,0.5,0.6,0.9,1.1,0.8
						s0.9-0.6,0.8-1.1l-1.7-11.5C4.5-269,4.1-269.4,3.6-269.4z"/>
				</g>
				<g>
					<path class="st1" d="M83-155.2c-0.4,0-0.8,0.3-1,0.7l-0.8,2.8c-0.1,0.5,0.2,1.1,0.7,1.2c0.5,0.1,1.1-0.2,1.2-0.7l0.8-2.8
						c0.1-0.5-0.2-1.1-0.7-1.2C83.2-155.2,83.1-155.2,83-155.2z"/>
				</g>
				<g>
					<path class="st1" d="M51.6-100.7c-0.2,0-0.5,0.1-0.7,0.2c-0.4,0.4-0.5,1-0.1,1.4l1.7,2c0.4,0.4,1,0.5,1.4,0.1s0.5-1,0.1-1.4
						l-1.7-2C52.2-100.6,51.9-100.7,51.6-100.7z"/>
				</g>
				<g>
					<path class="st1" d="M98.8-52c-0.2,0-0.3,0-0.5,0.1c-0.5,0.3-0.6,0.9-0.4,1.4l3.8,6.5c0.3,0.5,0.9,0.6,1.4,0.4
						c0.5-0.3,0.6-0.9,0.4-1.4l-3.8-6.5C99.5-51.9,99.2-52,98.8-52z"/>
				</g>
				<g>
					<path class="st1" d="M141.5-182.8c-0.3,0-0.7,0.2-0.8,0.5l-3.1,4.9c-0.3,0.5-0.2,1.1,0.3,1.4s1.1,0.2,1.4-0.3l3.1-4.9
						c0.3-0.5,0.2-1.1-0.3-1.4C141.9-182.7,141.7-182.8,141.5-182.8z"/>
				</g>
				<g>
					<path class="st1" d="M255.2-6.2c-0.5,0-0.9,0.3-1,0.8s0.2,1.1,0.8,1.2l12.8,2.5c0.5,0.1,1.1-0.2,1.2-0.8
						c0.1-0.5-0.2-1.1-0.8-1.2l-12.8-2.5C255.3-6.2,255.3-6.2,255.2-6.2z"/>
				</g>
				<g>
					<path class="st1" d="M70.2-113.6c-0.1,0-0.1,0-0.2,0l-3.4,0.7c-0.5,0.1-0.9,0.6-0.8,1.2c0.1,0.5,0.6,0.9,1.2,0.8l3.4-0.7
						c0.5-0.1,0.9-0.6,0.8-1.2C71-113.3,70.6-113.6,70.2-113.6z"/>
				</g>
				<g>
					<path class="st1" d="M59.3-65c-0.3,0-0.7,0.2-0.9,0.5l-3.7,6.2c-0.3,0.5-0.1,1.1,0.3,1.4c0.5,0.3,1.1,0.1,1.4-0.3l3.7-6.2
						c0.3-0.5,0.1-1.1-0.3-1.4C59.7-65,59.5-65,59.3-65z"/>
				</g>
				<g>
					<path class="st1" d="M5.6-41.9c-0.1,0-0.2,0-0.3,0l-4.2,1.1c-0.5,0.1-0.9,0.7-0.7,1.2s0.7,0.9,1.2,0.7L5.8-40
						c0.5-0.1,0.9-0.7,0.7-1.2C6.5-41.6,6.1-41.9,5.6-41.9z"/>
				</g>
				<g>
					<path class="st1" d="M268.1-157.7H268l-3.1,0.4c-0.5,0.1-0.9,0.6-0.9,1.1c0.1,0.5,0.6,0.9,1.1,0.9l3.1-0.4
						c0.5-0.1,0.9-0.6,0.9-1.1C269-157.4,268.6-157.7,268.1-157.7z"/>
				</g>
				<g>
					<path class="st1" d="M253.6-141.2c-0.1,0-0.2,0-0.2,0l-4.7,1.2c-0.5,0.1-0.9,0.7-0.7,1.2c0.1,0.5,0.7,0.9,1.2,0.7l4.7-1.2
						c0.5-0.1,0.9-0.7,0.7-1.2C254.4-140.9,254-141.2,253.6-141.2z"/>
				</g>
				<g>
					<path class="st1" d="M159-210.5c-0.5,0-0.9,0.4-1,0.9l-1,9.3c-0.1,0.5,0.3,1,0.9,1.1c0.5,0.1,1-0.3,1.1-0.9l1-9.3
						c0.1-0.5-0.3-1-0.9-1.1C159.1-210.5,159-210.5,159-210.5z"/>
				</g>
				<g>
					<path class="st1" d="M214.6-89.3c-0.4,0-0.9,0.3-1,0.8l-3.5,14c-0.1,0.5,0.2,1.1,0.7,1.2c0.5,0.1,1.1-0.2,1.2-0.7l3.5-14
						c0.1-0.5-0.2-1.1-0.7-1.2C214.7-89.3,214.6-89.3,214.6-89.3z"/>
				</g>
				<g>
					<path class="st1" d="M183.2-269.4L183.2-269.4l-4.3,0.1c-0.6,0-1,0.5-1,1c0,0.6,0.5,1,1,1l4.3-0.1c0.6,0,1-0.5,1-1
						S183.8-269.4,183.2-269.4z"/>
				</g>
			</g>
		</g>
	</g>
</pattern>
<path class="st1" d="M50,25c0,3.7-0.8,7.2-2.2,10.3c-2.9,6.3-8.2,11.2-14.8,13.4c-1.1,0.4-2.2,0.7-3.4,0.9c-1,0.2-2,0.3-3,0.4
	c-0.5,0-1,0-1.5,0c-0.4,0-0.8,0-1.2,0c-7.1-0.3-13.4-3.6-17.7-8.6c-0.6-0.7-1.2-1.4-1.7-2.2c-0.2-0.3-0.4-0.6-0.6-0.9
	C1.4,34.4,0,29.8,0,25C0,11.2,11.2,0,25,0S50,11.2,50,25z"/>
<g>
	<g id="XMLID_1011_">
		<path id="XMLID_1055_" class="st2" d="M31.7,26.3c-2.5-1.1-3.6-3.6-2.9-5.5c0.6-1.8,2.6-2.4,2.8-2.5c0.2-0.3,3.5-3.9,8.1-3.2
			c4.3,0.6,6.5,4.4,6.9,5.4c0.2,0.5,0.3,0.8,0.5,1.4c0.6,1.9,1.5,5.1,0.5,7.6c-1.6,3.8-7.4,4.4-8.5,4.5c-1.7,0.2-6.2,0.6-7.9-2.2
			C30.2,29.6,31.5,26.8,31.7,26.3z"/>
		<g id="XMLID_1047_">
			<g id="XMLID_1053_">
				<path class="st3" d="M32.9,48.7c-1.1,0.4-2.2,0.7-3.4,0.9c-1,0.2-2,0.3-3,0.4l0.2-8.2c1-1.6,2.3-3.3,3.9-4.7
					c0.1-0.1,0.1-0.1,0.2-0.2c0,0,0,0,0.1,0c0.1-0.1,0.1-0.1,0.2-0.2c0.2-0.1,0.3-0.3,0.5-0.4l0,0.1L32.9,48.7z"/>
			</g>
			<path class="st3" d="M47.8,35.3c-2.9,6.3-8.2,11.2-14.8,13.4c-1.1,0.4-2.2,0.7-3.4,0.9c-0.1-4.6-0.1-8.8,0-10.3
				c0-0.3,0.1-0.5,0.1-0.6c0-0.1,0.1-0.1,0.1-0.2c0.2-0.4,0.4-0.8,0.7-1.1c0.1-0.2,0.3-0.3,0.4-0.5c0,0,0,0,0.1-0.1
				c0,0,0.1-0.1,0.1-0.1c0.1-0.1,0.2-0.2,0.4-0.3c0,0,0,0,0.1,0l0,0l0,0l0,0c0,0,0,0,0,0c0,0,0.1,0,0.1,0c0.3-0.2,0.7-0.3,1-0.5
				c1.3-0.5,2.6-0.9,3.7-1.1c0,0,0,0,0,0c0.1,0,0.2,0,0.3,0c1.5-0.3,2.7-0.3,3.5-0.4c1.2,0,2.3,0.1,3.1,0.2c0.5,0.1,0.9,0.1,1.2,0.2
				C45.8,34.9,46.9,35.1,47.8,35.3z"/>
			<pattern  id="XMLID_3_" xlink:href="#XMLID_10_" patternTransform="matrix(0.2324 0 0 -0.2324 -6478.2583 -10385.2119)">
			</pattern>
			<path id="XMLID_1050_" class="st4" d="M31.4,36.4l0.2-0.1c0,0-0.1,0-0.1,0C31.5,36.3,31.5,36.3,31.4,36.4
				C31.5,36.3,31.5,36.3,31.4,36.4z"/>
			<g id="XMLID_1004_">
				<path id="XMLID_272_" class="st5" d="M28.2,42C28.2,42,28.2,42,28.2,42C28,41.9,28,41.8,28,41.7c0.4-1.1,0.9-2.1,1.5-3.1
					c0.1-0.1,0.2-0.1,0.3-0.1c0.1,0.1,0.1,0.2,0.1,0.3c-0.6,1-1.1,2-1.4,3.1C28.4,41.9,28.3,42,28.2,42z"/>
			</g>
		</g>
		<g id="XMLID_1031_">
			<g id="XMLID_1043_">
				<path id="XMLID_1046_" class="st6" d="M43.3,34.5c-1,0.7-4.8,3.2-7,2.8c-0.2,0-0.7-0.1-0.9-0.5c-0.4-0.8,1.1-2.4,1.4-2.6
					c0,0,0,0,0,0l0.1-4.1l4.3-1.7c0,1.3,0.1,3.2,0.3,3.9c0.2,0.8,0.4,1.1,0.4,1.1C42.3,33.8,42.8,34.1,43.3,34.5z"/>
				<path id="XMLID_1044_" class="st7" d="M41.4,32.3c-0.4,0.4-0.9,0.8-1.5,1.1c-1.1,0.6-2.3,0.9-3.2,0.8c0,0,0,0,0,0l0.1-4.1
					l4.3-1.7C41.2,29.8,41.3,31.7,41.4,32.3z"/>
			</g>
			<path id="XMLID_1042_" class="st6" d="M31.9,26.5c0,0,0,0.1,0,0.1c0,1.2,0,1.9,0.2,2.4c0.1,0.4,0.7,2,2.2,2.7
				c1.6,0.7,3.2,0,3.6-0.2c0.4-0.2,0.8-0.5,1.3-0.9c0.3-0.3,0.7-0.7,1.2-1.1c0.7-0.7,1.3-1.3,1.7-1.7c0.1,0,0.7-0.1,1.1-0.6
				c0.3-0.4,0.5-1,0.3-1.5c-0.1-0.4-0.5-1.1-1.2-1.2c-0.5,0-0.9,0.3-1.2,0.8c-0.2,0-0.3,0-0.5-0.1c-0.9-0.3-1.3-1.8-1.1-3.5
				c-0.5-0.2-1-0.4-1.5-0.6c-0.7-0.3-1.3-0.7-1.8-1c-0.4,0.1-1,0.4-1.8,0.4c-0.9,0-1.6-0.2-2-0.4C32.4,21,32.1,22.3,32,24
				C31.9,24.4,31.9,25.4,31.9,26.5z"/>
			<g id="XMLID_1040_">
				
					<ellipse id="XMLID_1041_" transform="matrix(0.9937 -0.1123 0.1123 0.9937 -2.5612 4.2911)" class="st8" cx="36.8" cy="24.9" rx="0.3" ry="0.3"/>
			</g>
			<g id="XMLID_1038_">
				
					<ellipse id="XMLID_1039_" transform="matrix(0.9937 -0.1123 0.1123 0.9937 -2.6199 3.8404)" class="st8" cx="32.8" cy="25.2" rx="0.3" ry="0.3"/>
			</g>
			<g id="XMLID_1036_">
				<path id="XMLID_1037_" class="st9" d="M34.8,28c0.1,0,0.2-0.1,0.2-0.1c0-0.1-0.1-0.2-0.1-0.2l-0.4,0c-0.1,0-0.2-0.1-0.2-0.3
					l0.1-1.8c0-0.1-0.1-0.2-0.2-0.2c-0.1,0-0.2,0.1-0.2,0.2l-0.1,1.8c0,0.3,0.2,0.6,0.5,0.6L34.8,28C34.7,28,34.7,28,34.8,28z"/>
			</g>
			
				<ellipse id="XMLID_1035_" transform="matrix(6.854889e-02 -0.9976 0.9976 6.854889e-02 11.7322 58.0927)" class="st2" cx="37" cy="22.8" rx="0.3" ry="1.2"/>
			
				<ellipse id="XMLID_1034_" transform="matrix(0.9965 -8.410339e-02 8.410339e-02 0.9965 -1.8122 2.8172)" class="st2" cx="32.5" cy="22.9" rx="1.2" ry="0.3"/>
			<g id="XMLID_1032_">
				<path id="XMLID_1033_" class="st9" d="M42.1,27c0.1,0,0.1,0,0.2-0.1l0.7-1.4c0-0.1,0-0.2-0.1-0.2s-0.2,0-0.2,0.1L42,26.8
					C42,26.8,42,26.9,42.1,27C42.1,27,42.1,27,42.1,27z"/>
			</g>
		</g>
		<g id="XMLID_1017_">
			<g id="XMLID_1020_">
				<path id="XMLID_107_" class="st1" d="M38.9,30.9c-0.1,0-0.2,0-0.2-0.1c0-0.1,0-0.2,0.1-0.3c0.9-0.4,1.7-1,2.4-1.7
					c0.3-0.3,0.5-0.6,0.8-0.9c0.1-0.1,0.2-0.1,0.3,0c0.1,0.1,0.1,0.2,0,0.3c-0.3,0.3-0.5,0.6-0.8,0.9c-0.7,0.7-1.6,1.3-2.6,1.8
					C39,30.9,39,30.9,38.9,30.9z"/>
			</g>
			<g id="XMLID_1019_">
				<path id="XMLID_102_" class="st1" d="M39.9,26.7c-0.1,0-0.2,0-0.2-0.1c0-0.1,0-0.2,0.1-0.3c0.3-0.1,0.5-0.3,0.8-0.5
					c0.2-0.2,0.4-0.5,0.6-0.7c0.1-0.1,0.2-0.1,0.3-0.1c0.1,0.1,0.1,0.2,0.1,0.3c-0.2,0.3-0.4,0.6-0.7,0.8c-0.3,0.3-0.6,0.4-0.9,0.6
					C39.9,26.7,39.9,26.7,39.9,26.7z"/>
			</g>
			<path id="XMLID_1018_" class="st10" d="M31.8,26.8c0,1.2,0,1.9,0.2,2.4c0.1,0.4,0.7,2,2.2,2.7c1.6,0.7,3.2,0,3.6-0.2
				c0.4-0.2,0.8-0.5,1.3-0.9c0.3-0.8,0.7-1.9,0.8-3.1c0.1-0.5,0.1-1,0.1-1.5C38,26.1,35.9,26,33.8,26C33.2,26.2,32.5,26.5,31.8,26.8
				z"/>
		</g>
		<g id="XMLID_1013_">
			<g id="XMLID_1016_">
				<path id="XMLID_101_" class="st11" d="M33.6,30.7c-0.3,0-0.4,0-0.9,0c-0.2,0-0.3-0.1-0.3-0.3s0.1-0.3,0.3-0.3c0.5,0,0.7,0,1.1,0
					c0.1,0,0.3,0,0.5,0c1.1,0,2.1-0.1,3.2-0.2c0.2,0,0.3,0.1,0.3,0.3c0,0.2-0.1,0.3-0.3,0.3c-1.1,0.1-2.2,0.2-3.2,0.2
					c-0.2,0-0.3,0-0.4,0C33.8,30.7,33.7,30.7,33.6,30.7z"/>
			</g>
			<g id="XMLID_1015_">
				<path id="XMLID_100_" class="st11" d="M32.3,29.3c-0.1,0-0.3-0.1-0.3-0.3c0-0.2,0.1-0.3,0.3-0.3c0.5,0,0.8-0.1,1.2-0.1
					c0.2,0,0.4,0,0.6,0c1.1-0.1,2.2-0.1,3.3-0.1c0.2,0,0.3,0.1,0.3,0.3s-0.1,0.3-0.3,0.3c-1.1,0-2.2,0.1-3.3,0.1c-0.3,0-0.5,0-0.6,0
					C33.1,29.3,32.8,29.3,32.3,29.3L32.3,29.3z"/>
			</g>
			<g id="XMLID_1014_">
				<path id="XMLID_99_" class="st11" d="M32.1,28.2c-0.1,0-0.3-0.1-0.3-0.2c0-0.1,0.1-0.3,0.2-0.4c0.2-0.1,0.3-0.1,0.7-0.1
					c0.1,0,0.9-0.2,1.8-0.2c1.3-0.1,2.6,0,3.4,0.1c0.2,0,0.3,0.2,0.3,0.3c0,0.2-0.2,0.3-0.3,0.3c-0.8-0.1-2-0.2-3.3-0.1
					c-0.8,0.1-1.6,0.2-1.7,0.2C32.4,28.1,32.3,28.1,32.1,28.2C32.1,28.2,32.1,28.2,32.1,28.2z"/>
			</g>
		</g>
	</g>
	<g id="XMLID_706_">
		<g id="XMLID_1005_">
			<path class="st12" d="M23.8,50c-7.1-0.3-13.4-3.6-17.7-8.6c-0.6-0.7-1.2-1.4-1.7-2.2c0-0.1,0.1-0.1,0.1-0.2
				c0.6-1,1.3-1.8,2.2-2.3c0,0,0.1,0,0.1-0.1c0.2-0.1,0.3-0.1,0.5-0.2c0.1,0,0.2,0,0.3-0.1c0.3-0.1,0.6-0.1,0.9-0.2c0,0,0,0,0.1,0
				c0,0,0,0,0,0c0.1,0,0.1,0,0.2,0c1-0.2,3-0.5,5.6-0.4c0.7,0,1.5,0.1,2.4,0.2c0,0,0,0,0,0c0.2,0,0.4,0.1,0.6,0.1c0.1,0,0.1,0,0.2,0
				c0.5,0.1,0.8,0.1,1.1,0.2c0.1,0,0.4,0.1,1,0.4c0.9,0.4,2.3,1.2,3.4,2.6C23.4,39.8,23.7,44.9,23.8,50z"/>
			<path class="st12" d="M6.9,36.6L6.8,37l-0.5,2.7l-0.3,1.5c-0.6-0.7-1.2-1.4-1.7-2.2c-0.2-0.3-0.4-0.6-0.6-0.9
				c1.2-1.1,2.5-1.5,2.9-1.6C6.8,36.6,6.9,36.6,6.9,36.6z"/>
		</g>
		<path id="XMLID_996_" class="st13" d="M14.9,27.8c0.6-0.5,2.3-2,2.5-4.4c0.4-3.4-2.6-6.5-5.6-7.4c-3-0.9-5.6,0.5-5.9,0.7
			c-1.3,0.7-2.1,1.6-2.5,2.2c-0.3-0.2-0.6-0.4-0.9-0.6c-0.2,0.5-1.3,3.3,0.1,5.9c0.2,0.3,0.7,1.2,1.7,1.9c1.5,1.1,2.9,0.8,6,1
			C11.4,27.3,13,27.4,14.9,27.8z"/>
		<g id="XMLID_770_">
			<g id="XMLID_992_">
				<path id="XMLID_995_" class="st6" d="M16.7,35.9c-1.2,0.7-5.7,3.2-8.1,2.8c-0.2,0-0.8-0.1-1-0.5c-0.5-0.9,1.2-2.5,1.4-2.7
					c0,0,0,0,0,0l0.1-4.3l4.5-1.8c0,1.4,0.1,3.4,0.3,4.1c0.2,0.8,0.4,1.1,0.4,1.1C15.2,35.1,16,35.5,16.7,35.9z"/>
				<path id="XMLID_993_" class="st7" d="M14,33.5c-0.4,0.4-0.9,0.8-1.5,1.1c-1.2,0.6-2.4,0.9-3.4,0.9c0,0,0,0,0,0l0.1-4.3l4.5-1.8
					C13.7,30.8,13.9,32.8,14,33.5z"/>
			</g>
			<path id="XMLID_991_" class="st6" d="M4.1,27.4c0,0,0,0.1,0,0.1c0,1.3,0,2,0.2,2.5c0.1,0.4,0.7,2.1,2.3,2.8
				c1.7,0.8,3.4,0,3.8-0.2c0.4-0.2,0.8-0.5,1.4-1c0.4-0.3,0.8-0.7,1.3-1.2c0.8-0.7,1.4-1.3,1.8-1.8c0.1,0,0.7-0.1,1.2-0.6
				c0.4-0.4,0.5-1,0.4-1.6c-0.1-0.4-0.5-1.2-1.3-1.2c-0.5,0-1,0.3-1.2,0.9c-0.1,0-0.3,0-0.5-0.1c-0.7-0.2-1.1-0.8-1.3-1.1
				c-0.5-0.8-1.6-2.8-2.7-5.7c-0.4,0.5-1.2,1.3-2.6,1.9c-0.9,0.4-1.7,0.4-2.2,0.4c-0.2,0.8-0.3,1.8-0.4,3C4,26.1,4.1,27.1,4.1,27.4z
				"/>
			<g id="XMLID_989_">
				
					<ellipse id="XMLID_990_" transform="matrix(0.9937 -0.1123 0.1123 0.9937 -2.8252 1.1956)" class="st8" cx="9.2" cy="25.7" rx="0.3" ry="0.4"/>
			</g>
			<g id="XMLID_987_">
				
					<ellipse id="XMLID_988_" transform="matrix(0.9937 -0.1123 0.1123 0.9937 -2.888 0.7235)" class="st8" cx="5" cy="26" rx="0.3" ry="0.4"/>
			</g>
			<g id="XMLID_775_">
				<path id="XMLID_986_" class="st9" d="M7,28.9c0.1,0,0.2-0.1,0.2-0.2c0-0.1-0.1-0.2-0.2-0.2l-0.4-0.1c-0.1,0-0.2-0.1-0.2-0.3
					l0.1-1.8c0-0.1-0.1-0.2-0.2-0.2c-0.1,0-0.2,0.1-0.2,0.2l-0.1,1.8c0,0.3,0.2,0.6,0.5,0.6L7,28.9C7,28.9,7,28.9,7,28.9z"/>
			</g>
			
				<ellipse id="XMLID_774_" transform="matrix(6.855993e-02 -0.9976 0.9976 6.855993e-02 -14.6768 31.1984)" class="st13" cx="9.4" cy="23.5" rx="0.3" ry="1.2"/>
			
				<ellipse id="XMLID_773_" transform="matrix(0.9965 -8.410382e-02 8.410382e-02 0.9965 -1.9729 0.4799)" class="st13" cx="4.7" cy="23.7" rx="1.2" ry="0.3"/>
			<g id="XMLID_771_">
				<path id="XMLID_772_" class="st9" d="M14.8,27.9c0.1,0,0.1,0,0.2-0.1l0.7-1.4c0-0.1,0-0.2-0.1-0.3s-0.2,0-0.3,0.1l-0.7,1.4
					C14.6,27.7,14.6,27.8,14.8,27.9C14.7,27.9,14.7,27.9,14.8,27.9z"/>
			</g>
		</g>
		<g id="XMLID_766_">
			<g id="XMLID_769_">
				<path id="XMLID_95_" class="st1" d="M11.4,32c-0.1,0-0.2,0-0.2-0.1c0-0.1,0-0.2,0.1-0.3c0.9-0.4,1.8-1.1,2.5-1.8
					c0.3-0.3,0.5-0.6,0.8-0.9c0.1-0.1,0.2-0.1,0.3,0c0.1,0.1,0.1,0.2,0,0.3c-0.3,0.3-0.5,0.7-0.8,1c-0.8,0.8-1.7,1.4-2.7,1.9
					C11.5,32,11.4,32,11.4,32z"/>
			</g>
			<g id="XMLID_768_">
				<path id="XMLID_94_" class="st1" d="M12.4,27.6c-0.1,0-0.2,0-0.2-0.1c0-0.1,0-0.2,0.1-0.3c0.3-0.1,0.6-0.3,0.8-0.6
					c0.2-0.2,0.4-0.5,0.6-0.8c0.1-0.1,0.2-0.1,0.3-0.1c0.1,0.1,0.1,0.2,0.1,0.3c-0.2,0.3-0.4,0.6-0.7,0.9
					C13.2,27.1,12.8,27.3,12.4,27.6C12.5,27.6,12.4,27.6,12.4,27.6z"/>
			</g>
			<path id="XMLID_767_" class="st10" d="M3.9,27.7c0,1.3,0,2,0.2,2.5c0.1,0.4,0.7,2.1,2.3,2.8c1.7,0.8,3.4,0,3.8-0.2
				c0.4-0.2,0.8-0.5,1.4-1c0.3-0.8,0.7-1.9,0.8-3.2c0.1-0.6,0.1-1.1,0.1-1.6c-2.2-0.1-4.4-0.1-6.6-0.2C5.4,27.1,4.6,27.4,3.9,27.7z"
				/>
		</g>
		<g id="XMLID_762_">
			<g id="XMLID_765_">
				<path id="XMLID_93_" class="st11" d="M5.9,31.7c-0.3,0-0.5,0-0.9,0c-0.2,0-0.3-0.1-0.3-0.3c0-0.2,0.1-0.3,0.3-0.3
					c0.5,0,0.7,0,1.1,0c0.1,0,0.3,0,0.5,0c1.1,0,2.2-0.1,3.3-0.2c0.2,0,0.3,0.1,0.3,0.3c0,0.2-0.1,0.3-0.3,0.3
					c-1.1,0.1-2.3,0.2-3.4,0.2c-0.2,0-0.4,0-0.5,0C6,31.7,6,31.7,5.9,31.7z"/>
			</g>
			<g id="XMLID_764_">
				<path id="XMLID_92_" class="st11" d="M4.4,30.4c-0.1,0-0.3-0.1-0.3-0.3c0-0.2,0.1-0.3,0.3-0.3c0.5,0,0.8-0.1,1.3-0.1
					c0.2,0,0.4,0,0.7,0c1.1-0.1,2.3-0.1,3.5-0.1c0.2,0,0.3,0.1,0.3,0.3c0,0.2-0.1,0.3-0.3,0.3c-1.2,0-2.3,0.1-3.5,0.1
					c-0.3,0-0.5,0-0.7,0C5.3,30.3,4.9,30.3,4.4,30.4C4.4,30.4,4.4,30.4,4.4,30.4z"/>
			</g>
			<g id="XMLID_763_">
				<path id="XMLID_88_" class="st11" d="M4.2,29.1c-0.1,0-0.3-0.1-0.3-0.2c0-0.1,0.1-0.3,0.2-0.4c0.2-0.1,0.3-0.1,0.7-0.1
					c0.1,0,1-0.2,1.8-0.2c1.4-0.1,2.7,0,3.5,0.1c0.2,0,0.3,0.2,0.3,0.3c0,0.2-0.2,0.3-0.3,0.3c-0.8-0.1-2.1-0.2-3.4-0.1
					C5.8,28.8,5.1,29,4.9,29C4.6,29.1,4.5,29.1,4.2,29.1C4.3,29.1,4.3,29.1,4.2,29.1z"/>
			</g>
		</g>
		<g id="XMLID_1_">
			<g id="XMLID_268_">
				<path id="XMLID_87_" class="st1" d="M14.2,25.8h-4c-0.1,0-0.1,0-0.1-0.1c0-0.1,0-0.1,0.1-0.1h4c0.1,0,0.1,0,0.1,0.1
					C14.3,25.8,14.2,25.8,14.2,25.8z"/>
			</g>
			<g id="XMLID_267_">
				<path id="XMLID_86_" class="st1" d="M7.4,25.8H5.8c-0.1,0-0.1,0-0.1-0.1c0-0.1,0-0.1,0.1-0.1h1.7c0.1,0,0.1,0,0.1,0.1
					C7.5,25.8,7.5,25.8,7.4,25.8z"/>
			</g>
			<g id="XMLID_266_">
				<path id="XMLID_58_" class="st1" d="M4.1,25.8H3c-0.1,0-0.1,0-0.1-0.1c0-0.1,0-0.1,0.1-0.1h1.1c0.1,0,0.1,0,0.1,0.1
					C4.2,25.8,4.1,25.8,4.1,25.8z"/>
			</g>
			<g id="XMLID_265_">
				<path id="XMLID_50_" class="st1" d="M5.9,25.6c0-0.8-0.6-1.5-1.3-1.6h0c-0.1,0-0.1,0-0.2,0c0,0-0.1,0-0.1,0c0,0-0.1,0-0.1,0h0
					c-0.5,0.1-0.8,0.4-1,0.9c-0.1,0.3-0.2,0.5-0.2,0.8c0,0.8,0.5,1.5,1.2,1.7c0.1,0,0.2,0,0.3,0c0,0,0.1,0,0.1,0c0,0,0,0,0,0
					c0.3,0,0.5-0.1,0.7-0.3c0,0,0,0,0,0c0.1-0.1,0.3-0.3,0.4-0.4c0.2-0.3,0.3-0.6,0.3-1c0,0,0-0.1,0-0.1C5.9,25.7,5.9,25.6,5.9,25.6
					z M5.3,26.7c-0.2,0.3-0.6,0.6-1,0.6c-0.1,0-0.2,0-0.3-0.1c-0.5-0.2-0.9-0.7-0.9-1.4c0,0,0-0.1,0-0.1c0,0,0-0.1,0-0.1
					c0-0.2,0-0.3,0.1-0.5c0.2-0.5,0.6-0.9,1-0.9c0,0,0.1,0,0.2,0c0.7,0,1.3,0.7,1.3,1.6C5.6,26.1,5.5,26.4,5.3,26.7z"/>
			</g>
			<g id="XMLID_264_">
				<path id="XMLID_32_" class="st1" d="M10.3,25.6c0-0.9-0.7-1.7-1.5-1.7s-1.5,0.7-1.5,1.7c0,0,0,0.1,0,0.1c0,0,0,0.1,0,0.1
					c0,0.4,0.2,0.8,0.4,1.1c0,0.1,0.1,0.1,0.2,0.2c0.3,0.3,0.6,0.4,1,0.4c0.3,0,0.6-0.1,0.8-0.3C9.7,27.1,9.8,27,9.8,27
					c0.3-0.3,0.4-0.7,0.5-1.2c0,0,0-0.1,0-0.1C10.3,25.7,10.3,25.6,10.3,25.6z M9.6,27c-0.1,0.1-0.2,0.1-0.2,0.2h0
					c-0.2,0.1-0.3,0.1-0.5,0.1c-0.2,0-0.4-0.1-0.6-0.2c0,0,0,0,0,0C8.1,27,8.1,27,8,26.9c-0.3-0.3-0.5-0.7-0.5-1.2
					c0-0.9,0.6-1.6,1.3-1.6c0.7,0,1.3,0.7,1.3,1.6C10.1,26.2,9.9,26.7,9.6,27z"/>
			</g>
		</g>
		<path id="XMLID_275_" class="st1" d="M14.7,34.8c-0.1,0.3-0.2,0.5-0.3,0.8c-1.6,1.1-3.2,2.1-4.9,3.2c0.8,0.6,1.6,1.2,2.4,1.8
			l5.6-4.5C16.6,35.6,15.6,35.2,14.7,34.8z"/>
		<path id="XMLID_281_" class="st1" d="M8.7,35.9v2.8c-1,0.4-1.9,0.9-2.9,1.3c0.4-1.1,0.7-2.3,1.1-3.4L8.7,35.9z"/>
	</g>
	<polygon id="XMLID_1045_" class="st14" points="32.9,35.6 30.1,34 30.1,35 19.5,35 19.5,34 16.7,35.6 19.5,37.2 19.5,36.2 
		30.1,36.2 30.1,37.2 	"/>
	<g>
		<path class="st14" d="M19.3,30.8v0.5h0.3v1.8h0.6v-2.3H19.3z"/>
		<path class="st14" d="M23.4,31.5c-0.1-0.1-0.3-0.2-0.5-0.2c-0.1,0-0.2,0-0.3,0.1c-0.1,0.1-0.2,0.1-0.3,0.2
			c-0.1-0.1-0.1-0.2-0.3-0.3c-0.1-0.1-0.2-0.1-0.3-0.1c-0.1,0-0.2,0-0.3,0.1c-0.1,0-0.2,0.1-0.2,0.2v-0.2h-0.5v1.8h0.5v-1
			c0-0.1,0-0.2,0.1-0.3c0.1-0.1,0.1-0.1,0.3-0.1c0.1,0,0.2,0,0.3,0.1c0.1,0.1,0.1,0.2,0.1,0.3v1h0.5v-1c0-0.1,0-0.2,0.1-0.3
			s0.1-0.1,0.3-0.1s0.2,0,0.3,0.1s0.1,0.2,0.1,0.3v1h0.5v-1C23.6,31.8,23.6,31.7,23.4,31.5z"/>
		<path class="st14" d="M25.7,32.2c0-0.2,0-0.3-0.1-0.5c-0.1-0.1-0.2-0.2-0.3-0.3c-0.1-0.1-0.3-0.1-0.5-0.1c-0.2,0-0.3,0-0.5,0.1
			c-0.1,0.1-0.2,0.2-0.3,0.3c-0.1,0.1-0.1,0.3-0.1,0.5c0,0.2,0,0.3,0.1,0.5c0.1,0.1,0.2,0.3,0.3,0.3c0.1,0.1,0.3,0.1,0.5,0.1
			c0.1,0,0.3,0,0.4-0.1c0.1-0.1,0.2-0.1,0.3-0.2c0.1-0.1,0.1-0.2,0.2-0.3h-0.6c0,0.1-0.1,0.2-0.3,0.2c-0.1,0-0.2,0-0.2-0.1
			c-0.1,0-0.1-0.1-0.1-0.3h1.2C25.7,32.3,25.7,32.3,25.7,32.2z M24.5,32.1c0-0.1,0-0.2,0.1-0.2c0.1,0,0.1-0.1,0.2-0.1
			c0.1,0,0.2,0,0.2,0.1c0.1,0,0.1,0.1,0.1,0.2H24.5z"/>
		<path class="st14" d="M26.8,32.7c-0.1,0-0.1,0-0.1,0c0,0,0-0.1,0-0.1v-0.7H27v-0.5h-0.4v-0.4h-0.5v0.4h-0.2v0.5h0.2v0.7
			c0,0.2,0,0.4,0.2,0.5c0.1,0.1,0.3,0.2,0.5,0.2H27v-0.5H26.8z"/>
		<path class="st14" d="M28.9,32.2c0-0.2,0-0.3-0.1-0.5c-0.1-0.1-0.2-0.2-0.3-0.3c-0.1-0.1-0.3-0.1-0.5-0.1c-0.2,0-0.3,0-0.5,0.1
			c-0.1,0.1-0.2,0.2-0.3,0.3c-0.1,0.1-0.1,0.3-0.1,0.5c0,0.2,0,0.3,0.1,0.5c0.1,0.1,0.2,0.3,0.3,0.3c0.1,0.1,0.3,0.1,0.5,0.1
			c0.1,0,0.3,0,0.4-0.1c0.1-0.1,0.2-0.1,0.3-0.2c0.1-0.1,0.1-0.2,0.2-0.3h-0.6c0,0.1-0.1,0.2-0.3,0.2c-0.1,0-0.2,0-0.2-0.1
			c-0.1,0-0.1-0.1-0.1-0.3h1.2C28.9,32.3,28.9,32.3,28.9,32.2z M27.7,32.1c0-0.1,0-0.2,0.1-0.2c0.1,0,0.1-0.1,0.2-0.1
			c0.1,0,0.2,0,0.2,0.1c0.1,0,0.1,0.1,0.1,0.2H27.7z"/>
		<path class="st14" d="M30,31.4c-0.1,0.1-0.2,0.1-0.2,0.2v-0.3h-0.5v1.8h0.5v-0.8c0-0.1,0-0.2,0.1-0.3c0.1-0.1,0.2-0.1,0.3-0.1h0.2
			v-0.6C30.2,31.3,30.1,31.4,30,31.4z"/>
	</g>
</g>
</svg>
