<?xml version="1.0" encoding="utf-8"?>
<!-- Generator: Adobe Illustrator 21.0.0, SVG Export Plug-In . SVG Version: 6.00 Build 0)  -->
<svg version="1.1" id="Layer_1" xmlns="http://www.w3.org/2000/svg" xmlns:xlink="http://www.w3.org/1999/xlink" x="0px" y="0px"
	 viewBox="0 0 50 50" style="enable-background:new 0 0 50 50;" xml:space="preserve">
<style type="text/css">
	.st0{fill:#FFFFFF;}
	.st1{fill:#FACDD3;}
	.st2{fill:#E25A7C;}
	.st3{fill:#6F4220;}
	.st4{fill:#EB82A8;}
	.st5{fill:#020202;}
	.st6{fill:#40BFB6;}
	.st7{fill:#70C9BF;}
</style>
<g>
	<path class="st0" d="M50,25c0,3.9-0.9,7.6-2.5,10.9c-1.5,3.1-3.7,5.9-6.3,8.1c-0.5,0.4-1,0.8-1.5,1.1c-4.1,3-9.2,4.8-14.7,4.8
		c-2.7,0-5.3-0.4-7.7-1.2c-1.5-0.5-2.9-1.1-4.3-1.9v0c-3.2-1.8-6-4.2-8.2-7.2v0C1.8,35.6,0,30.5,0,25c0-0.5,0-1,0.1-1.5
		c0-0.9,0.1-1.8,0.3-2.6c0.1-0.4,0.1-0.8,0.3-1.2C1.1,17.3,2,15,3.1,12.9C7.4,5.2,15.6,0,25,0C38.8,0,50,11.2,50,25z"/>
	<g id="XMLID_273_">
		<path id="XMLID_925_" class="st1" d="M19.1,28.8L19.1,28.8c0-0.1,0-0.1-0.1-0.2c0.1-0.1,0.1-0.3,0.1-0.3l0-0.1
			c0-0.3-0.3-0.5-0.3-0.6c0,0,0,0,0,0s0,0,0,0c-0.1,0-0.2-0.1-0.3-0.3c-0.1-0.1-0.1-0.1-0.2-0.3c-0.2-0.3-0.4-0.8-0.6-1.2
			c0,0,0,0,0,0c0-0.1-0.1-0.2-0.1-0.3c0,0,0,0,0,0c-0.3-0.4-0.7-0.8-1.2-0.9c-0.1,0-0.3,0-0.4,0c-0.1,0-0.2,0.1-0.3,0.1
			c0,0-0.1,0-0.1,0.1c-0.1,0-0.1,0.1-0.2,0.1c-0.1,0.1-0.2,0.1-0.3,0.3c0,0-0.1,0-0.1,0.1c-0.4,0.4-0.9,1-1.2,1.5
			c0,0.1-0.1,0.1-0.1,0.2l-0.2,0l-0.2-0.1c-0.7-0.3-1.2-0.1-1.5,0.1c-0.1,0.1-0.2,0.2-0.2,0.2c-0.1,0-0.1-0.1-0.2-0.1
			c-1.2-0.4-2,0-2.3,0.3h0c-0.1,0.1-0.1,0.1-0.1,0.1l-0.2,0L8,27.6c-0.2,0.1-0.6,0.2-0.9,0.5c-0.9,0.8-1.1,2-1.3,4.1
			c-0.1,1.4-0.2,3-0.2,4.8c0,0,0,0,0,0c-0.1,0.2-0.4,1.2-0.9,2.8v0c2.2,3,5,5.4,8.2,7.2c0.1-4.2,0.1-7.5,0.1-8.5v-0.2
			c0.1,0,0.1-0.1,0.2-0.1c0.2-0.1,0.4-0.2,0.6-0.3c0.4-0.1,0.7-0.3,1-0.3c0.8-0.1,1.5-0.6,2-1.3c0-0.1,0.1-0.1,0.1-0.2c0,0,0,0,0,0
			c0.1-0.2,0.3-0.5,0.4-0.7c0.3-0.6,0.5-1.2,0.6-1.7c0-0.1,0.1-0.2,0.1-0.3c0-0.1,0-0.1,0-0.2c0-0.1,0-0.2,0-0.3
			c0-0.9,0.5-1.3,0.8-1.8c0.1-0.1,0.1-0.1,0.1-0.2c0.1-0.2,0.2-0.4,0.2-0.6c0,0,0-0.1,0-0.1C19.5,29.6,19.5,29.3,19.1,28.8z
			 M16.1,31.2c-0.1,0.1-0.2,0.1-0.2,0.1l0-0.6l0-1.6c0,0,0,0,0,0v-0.2c0,0,0,0,0-0.1c0,0,0-0.1,0-0.1l0.6-0.8l0.5,0.6l0.1,0.1
			c0.2,0.3,0.4,0.5,0.7,0.6c-0.3,0.3-0.4,0.7-0.5,1c0,0.1,0,0.1-0.1,0.2C16.9,30.8,16.4,31,16.1,31.2z"/>
		<g id="XMLID_911_">
			<g id="XMLID_921_">
				<path id="XMLID_402_" class="st2" d="M12.1,38.5c-0.3,0-0.6,0-1,0c-0.7,0-1.3-0.1-2-0.3c-0.1,0-0.2-0.1-0.2-0.3
					c0-0.1,0.1-0.2,0.3-0.2c0.6,0.1,1.3,0.2,2,0.2c0.7,0,1.3,0,2,0c0.1,0,0.2,0.1,0.2,0.2c0,0.1-0.1,0.2-0.2,0.2
					C12.8,38.4,12.4,38.5,12.1,38.5z"/>
			</g>
			<g id="XMLID_918_">
				<path id="XMLID_401_" class="st2" d="M14.9,32.5C14.9,32.5,14.8,32.5,14.9,32.5c-0.8-0.1-1.5-0.6-1.5-1.7c0-0.1,0.1-0.2,0.2-0.2
					c0.1,0,0.2,0.1,0.2,0.2c0,0.8,0.5,1.2,1,1.3c0.4,0,0.8-0.3,0.8-0.8c0.2-3.4-2.2-4-2.2-4c-0.1,0-0.2-0.1-0.2-0.3s0.1-0.2,0.3-0.2
					c0,0,2.8,0.6,2.6,4.4C16,32.2,15.4,32.5,14.9,32.5z"/>
			</g>
			<g id="XMLID_916_">
				<path id="XMLID_399_" class="st2" d="M12.3,32.6c-0.2,0-0.4-0.1-0.4-0.1c-0.6-0.2-1-0.9-1-1.7c0-0.1,0.1-0.2,0.2-0.2l0,0
					c0.1,0,0.2,0.1,0.2,0.2c0,0.6,0.3,1.1,0.7,1.3c0.1,0,0.3,0.1,0.4,0c0.6-0.1,0.8-1.1,0.9-1.5c0.3-1.7-2.1-3.3-2.1-3.3
					c-0.1-0.1-0.1-0.2-0.1-0.3c0.1-0.1,0.2-0.1,0.3-0.1c0.1,0.1,2.6,1.7,2.3,3.7c0,0.1-0.3,1.6-1.2,1.8
					C12.5,32.6,12.4,32.6,12.3,32.6z"/>
			</g>
			<g id="XMLID_914_">
				<path id="XMLID_398_" class="st2" d="M8.1,34C8.1,34,8,34,8.1,34c-0.2,0-0.3-0.2-0.2-0.3v0C8,33.3,8.2,32.6,8,31.8
					c-0.2-0.6-0.6-1.2-0.9-1.8c-0.1-0.1,0-0.2,0-0.3c0.1-0.1,0.2-0.1,0.3-0.1c0.4,0.2,0.8,0.4,1.1,0.7C8.8,30.6,9,30.8,9.2,31
					c0.3,0.3,0.5,0.5,0.8,0.5c0.3,0,0.7-0.1,0.8-0.3c0.3-0.5-0.6-1.9-2.3-3.5c-0.1-0.1-0.1-0.2,0-0.3c0.1-0.1,0.2-0.1,0.3,0
					c1.1,1.1,2.9,3.1,2.4,4c-0.2,0.4-0.8,0.5-1.2,0.5c-0.4,0-0.7-0.3-1.1-0.6c-0.2-0.2-0.4-0.4-0.7-0.6c-0.1-0.1-0.3-0.2-0.4-0.3
					c0.2,0.4,0.4,0.8,0.5,1.2c0.3,1,0,1.7-0.1,2.1v0C8.3,33.9,8.2,34,8.1,34z"/>
			</g>
		</g>
		<g id="XMLID_707_">
			<path id="XMLID_860_" class="st3" d="M35,29.2c1.1-0.9,4.1-3.7,4.6-7.9C40.2,15.2,35,9.7,29.4,8c-7.5-2.3-13.7,2.7-14.2,3.2
				c-0.6-0.4-1.1-0.8-1.7-1.2c-0.4,0.7-3.8,7.2-0.7,12.9c0.3,0.6,1.3,2.2,3.1,3.4c2.7,1.9,5.3,1.5,10.8,1.9
				C28.7,28.3,31.5,28.6,35,29.2z"/>
			<g id="XMLID_761_">
				<g id="XMLID_822_">
					<path class="st1" d="M39.7,45.2c-4.1,3-9.2,4.8-14.7,4.8c-2.7,0-5.3-0.4-7.7-1.2c0.9-1.9,6.8-5.3,7.3-5.8h0c0,0,0.1,0,0.1,0
						c0,0,0,0,0,0l0.1-4v-0.2l0.1-2.9l0-0.6l0.8-0.3l4.6-1.8l2.7-1h0V33c0,0.3,0,0.6,0,1c0,2.2,0.2,4.6,0.5,5.5
						c0.3,1.4,0.7,2.1,0.7,2.1C35.1,42.1,37.9,44.1,39.7,45.2z"/>
					<path id="XMLID_832_" class="st4" d="M33.3,39.5c-0.8,0.7-1.7,1.4-2.7,2c-2.1,1.1-4.3,1.7-6.1,1.6c0.1-0.1,0.1-0.1,0.1-0.1
						l0.2-7.7l8.1-3.2C32.8,34.7,33,38.2,33.3,39.5z"/>
				</g>
				<path id="XMLID_815_" class="st1" d="M15.4,28.5c0,0.1,0,0.2,0,0.3c0.1,2.3,0.1,3.5,0.4,4.5C16,34,17,37,20,38.4
					c3.1,1.4,6.1,0,6.8-0.3c0.8-0.3,1.5-0.9,2.5-1.8c0.6-0.6,1.4-1.3,2.3-2.1c1.4-1.3,2.5-2.4,3.2-3.2c0.3,0,1.3-0.1,2.1-1.1
					c0.6-0.8,0.9-1.9,0.6-2.8c-0.2-0.8-1-2.1-2.3-2.2c-0.9,0-1.8,0.6-2.2,1.5c-0.2,0-0.5,0-0.9-0.1c-1.3-0.4-2-1.3-2.4-1.9
					c-1-1.4-2.9-5.1-4.9-10.2c-0.7,0.9-2.2,2.4-4.7,3.4c-1.6,0.6-3,0.8-4,0.8c-0.3,1.5-0.6,3.3-0.8,5.4
					C15.3,26.1,15.4,27.9,15.4,28.5z"/>
				<g id="XMLID_808_">
					
						<ellipse id="XMLID_814_" transform="matrix(0.9937 -0.1123 0.1123 0.9937 -2.6891 2.8629)" class="st5" cx="24.1" cy="25.3" rx="0.5" ry="0.6"/>
				</g>
				<g id="XMLID_806_">
					
						<ellipse id="XMLID_807_" transform="matrix(0.9937 -0.1123 0.1123 0.9937 -2.7327 2.1897)" class="st5" cx="18.1" cy="25.4" rx="0.5" ry="0.6"/>
				</g>
				<g id="XMLID_801_">
					<path id="XMLID_803_" class="st2" d="M20.8,31.2c0.2,0,0.3-0.1,0.3-0.3c0-0.2-0.1-0.3-0.3-0.4l-0.7-0.1c-0.2,0-0.4-0.2-0.4-0.4
						l0.3-3.3c0-0.2-0.1-0.3-0.3-0.4c-0.2,0-0.3,0.1-0.4,0.3L19,30c0,0.6,0.4,1.1,1,1.1L20.8,31.2C20.7,31.2,20.8,31.2,20.8,31.2z"
						/>
				</g>
				
					<ellipse id="XMLID_799_" transform="matrix(6.855754e-02 -0.9976 0.9976 6.855754e-02 0.9965 45.6852)" class="st3" cx="25" cy="22.3" rx="0.5" ry="2.2"/>
				
					<ellipse id="XMLID_795_" transform="matrix(0.9965 -8.410595e-02 8.410595e-02 0.9965 -1.8449 1.4754)" class="st3" cx="16.6" cy="22.6" rx="2.2" ry="0.5"/>
				<g id="XMLID_785_">
					<path id="XMLID_791_" class="st2" d="M34.7,29.4c0.1,0,0.3-0.1,0.3-0.2l1.2-2.6c0.1-0.2,0-0.4-0.2-0.4c-0.2-0.1-0.4,0-0.4,0.2
						l-1.2,2.6c-0.1,0.2,0,0.4,0.2,0.4C34.6,29.4,34.6,29.4,34.7,29.4z"/>
				</g>
			</g>
			<g id="XMLID_730_">
				<g id="XMLID_759_">
					<path id="XMLID_397_" class="st0" d="M28.6,36.7c-0.1,0-0.3-0.1-0.4-0.2c-0.1-0.2,0-0.4,0.2-0.5c1.7-0.8,3.3-1.9,4.6-3.2
						c0.5-0.5,1-1.1,1.4-1.7c0.1-0.2,0.4-0.2,0.6-0.1c0.2,0.1,0.2,0.4,0.1,0.5c-0.4,0.6-1,1.2-1.5,1.8c-1.4,1.4-3,2.5-4.8,3.4
						C28.7,36.7,28.7,36.7,28.6,36.7z"/>
				</g>
				<g id="XMLID_902_">
					<path id="XMLID_975_" class="st1" d="M47.3,35.5C47.4,35.5,47.4,35.5,47.3,35.5c0-1.8,0-3.4-0.1-4.8c-0.1-2.1-0.3-3.3-1.2-4.1
						c-0.3-0.3-0.7-0.4-0.9-0.5L44.7,26l-0.3-0.1c0,0,0,0-0.1-0.1c-0.3-0.2-1-0.7-2.2-0.4c-0.1,0-0.2,0-0.3,0.1c0,0,0,0-0.1-0.1
						c-0.2-0.2-0.8-0.5-1.6-0.2l-0.1,0l-0.3,0.1c0,0,0-0.1-0.1-0.1c-0.2-0.3-0.5-0.7-0.8-1v0c-0.6-0.7-1.3-1.3-1.9-1.3
						c-1.1,0.1-1.5,1.2-1.9,2.1h0c-0.2,0.4-0.4,0.7-0.6,0.8c0,0-0.7,0.4-0.2,1.1C34,26.9,34,27,34,27c-0.2,0.3-0.3,0.6-0.3,0.9v0
						c0,0.1,0,0.2,0,0.3c0,0.3,0.1,0.6,0.3,0.9c0.3,0.5,0.8,1,0.9,1.9c0,0,0,0,0,0.1c0,0.1,0,0.1,0,0.2v0.2c0,0.1,0,0.2,0,0.3
						c0.3,1.5,1.3,3.6,3.2,4c0.3,0.1,0.7,0.2,1,0.3c0.3,0.2,0.6,0.3,0.7,0.4c0.3,1.3,0.8,3.3,1.1,5.9c0.1,0.6,0.2,1.1,0.2,1.7
						c2.6-2.2,4.8-5,6.3-8.1C47.4,35.7,47.3,35.6,47.3,35.5z M35.9,28.4C35.9,28.4,35.9,28.4,35.9,28.4c0-0.2-0.1-0.4-0.2-0.6
						c-0.1-0.1-0.2-0.3-0.3-0.4c0.1-0.1,0.3-0.1,0.4-0.3c0.1-0.1,0.3-0.2,0.3-0.4l0.1-0.1l0,0l0.5-0.6l0.5,0.8l0,0
						c0,0.1,0,0.2,0,0.2l0,1.2l0,1.2c0,0,0,0,0,0c-0.1,0-0.3-0.1-0.6-0.3c0,0,0,0,0,0C36.3,29,35.9,28.7,35.9,28.4z"/>
					<g id="XMLID_735_">
						<g id="XMLID_876_">
							<path id="XMLID_396_" class="st2" d="M41.2,36.8c-0.4,0-0.7,0-1.1,0c-0.1,0-0.2-0.1-0.2-0.2c0-0.1,0.1-0.2,0.2-0.2
								c0.6,0,1.3,0.1,2,0c0.6,0,1.3-0.1,2-0.2c0.1,0,0.2,0.1,0.3,0.2c0,0.1-0.1,0.2-0.2,0.3c-0.7,0.1-1.3,0.2-2,0.3
								C41.9,36.8,41.5,36.8,41.2,36.8z"/>
						</g>
						<g id="XMLID_874_">
							<path id="XMLID_392_" class="st2" d="M38.4,30.8c-0.5,0-1.1-0.3-1.2-1.2c-0.2-3.9,2.6-4.5,2.6-4.5c0.1,0,0.2,0.1,0.3,0.2
								c0,0.1-0.1,0.2-0.2,0.3c-0.1,0-2.4,0.5-2.2,4c0.1,0.5,0.4,0.8,0.8,0.8c0.5,0,1-0.5,1-1.3c0-0.1,0.1-0.2,0.2-0.2
								c0.1,0,0.2,0.1,0.2,0.2C39.8,30.2,39.1,30.8,38.4,30.8C38.4,30.8,38.4,30.8,38.4,30.8z"/>
						</g>
						<g id="XMLID_869_">
							<path id="XMLID_389_" class="st2" d="M41,31c-0.1,0-0.2,0-0.3,0c-1-0.3-1.2-1.7-1.2-1.8c-0.3-2,2.2-3.7,2.3-3.7
								c0.1-0.1,0.3,0,0.3,0.1c0.1,0.1,0,0.2-0.1,0.3c0,0-2.4,1.6-2.1,3.3c0,0,0.2,1.3,0.9,1.5c0.2,0.1,0.4,0,0.4,0
								c0.4-0.2,0.7-0.7,0.7-1.3c0-0.1,0.1-0.2,0.2-0.2c0.1,0,0.2,0.1,0.2,0.2c0,0.8-0.3,1.5-1,1.7C41.3,30.9,41.2,31,41,31z"/>
						</g>
						<g id="XMLID_865_">
							<path id="XMLID_388_" class="st2" d="M45.2,32.3c-0.1,0-0.2-0.1-0.2-0.2v0c-0.1-0.4-0.4-1.2-0.1-2.1c0.1-0.4,0.3-0.8,0.5-1.2
								c-0.1,0.1-0.3,0.2-0.4,0.3c-0.3,0.2-0.5,0.4-0.7,0.6c-0.4,0.3-0.6,0.6-1.1,0.6c-0.4,0-1-0.1-1.2-0.5c-0.6-1,1.2-2.9,2.4-4
								c0.1-0.1,0.2-0.1,0.3,0c0.1,0.1,0.1,0.2,0,0.3c-1.4,1.3-2.6,2.9-2.3,3.5c0.1,0.2,0.5,0.3,0.8,0.3c0.3,0,0.5-0.2,0.8-0.5
								c0.2-0.2,0.4-0.4,0.8-0.6c0.4-0.3,0.8-0.5,1.1-0.7c0.1-0.1,0.2,0,0.3,0.1c0.1,0.1,0.1,0.2,0,0.3c-0.4,0.6-0.7,1.2-0.9,1.8
								c-0.3,0.8,0,1.5,0.1,1.9v0C45.4,32.2,45.4,32.3,45.2,32.3C45.2,32.3,45.2,32.3,45.2,32.3z"/>
						</g>
					</g>
				</g>
				<g id="XMLID_734_">
					<path id="XMLID_387_" class="st0" d="M36.2,29.4L36.2,29.4c-0.2,0-0.4-0.2-0.4-0.4c0-0.3-0.1-0.9-0.4-1.1
						c-0.2-0.1-0.5-0.3-2,0.1c-1,0.2-2,0.5-3,0.9c-0.2,0.1-0.4,0-0.5-0.2c-0.1-0.2,0-0.4,0.2-0.5c1-0.4,2-0.7,3.1-0.9
						c1.5-0.3,2.1-0.3,2.6,0.1c0.4,0.4,0.7,1,0.7,1.8C36.6,29.2,36.5,29.4,36.2,29.4z"/>
				</g>
				<path id="XMLID_732_" class="st6" d="M15.2,29c0.1,2.3,0.1,3.5,0.4,4.5c0.2,0.7,1.2,3.7,4.2,5.1c3.1,1.4,6.1,0,6.8-0.3
					c0.8-0.3,1.5-0.9,2.5-1.8c0.6-1.5,1.2-3.5,1.5-5.8c0.1-1,0.2-2,0.2-2.8c-4-0.1-7.9-0.3-11.8-0.4C17.8,28,16.5,28.5,15.2,29z"/>
			</g>
			<g id="XMLID_714_">
				<g id="XMLID_729_">
					<path id="XMLID_386_" class="st7" d="M18.7,36.1c-0.4,0-0.8,0-1.6-0.1c-0.2,0-0.4-0.2-0.4-0.4c0-0.2,0.2-0.4,0.4-0.4
						c1,0.1,1.2,0.1,2,0.1c0.2,0,0.5,0,0.9,0c2,0,4-0.1,6-0.4c0.2,0,0.4,0.1,0.4,0.3c0,0.2-0.1,0.4-0.3,0.4c-2,0.3-4.1,0.4-6.1,0.4
						c-0.4,0-0.6,0-0.8,0C19,36.1,18.8,36.1,18.7,36.1z"/>
				</g>
				<g id="XMLID_727_">
					<path id="XMLID_385_" class="st7" d="M16,33.7c-0.2,0-0.4-0.2-0.4-0.4c0-0.2,0.1-0.4,0.4-0.4c0.9-0.1,1.5-0.1,2.3-0.1
						c0.4,0,0.7,0,1.2-0.1c2.1-0.1,4.2-0.2,6.2-0.2c0.2,0,0.4,0.2,0.4,0.4c0,0.2-0.2,0.4-0.4,0.4c-2.1,0-4.1,0.1-6.2,0.2
						c-0.5,0-0.9,0.1-1.2,0.1C17.6,33.6,17,33.6,16,33.7C16.1,33.7,16,33.7,16,33.7z"/>
				</g>
				<g id="XMLID_715_">
					<path id="XMLID_384_" class="st7" d="M15.7,31.5c-0.2,0-0.3-0.1-0.4-0.3c-0.1-0.2,0.1-0.4,0.3-0.5c0.4-0.1,0.6-0.1,1.2-0.3
						c0.3-0.1,1.7-0.3,3.3-0.4c2.4-0.2,4.8,0,6.3,0.2c0.2,0,0.4,0.2,0.3,0.4c0,0.2-0.2,0.4-0.4,0.3c-1.5-0.2-3.8-0.3-6.2-0.1
						c-1.5,0.1-2.9,0.4-3.2,0.4C16.3,31.3,16.2,31.3,15.7,31.5C15.8,31.5,15.8,31.5,15.7,31.5z"/>
				</g>
			</g>
			<g id="XMLID_708_">
				<g id="XMLID_713_">
					<path id="XMLID_383_" class="st0" d="M34.2,25.3h-8.3c-0.1,0-0.1-0.1-0.1-0.1s0.1-0.1,0.1-0.1h8.3c0.1,0,0.1,0.1,0.1,0.1
						C34.3,25.2,34.2,25.3,34.2,25.3z"/>
				</g>
				<g id="XMLID_712_">
					<path id="XMLID_380_" class="st0" d="M22,25.3h-2.4c-0.1,0-0.1-0.1-0.1-0.1s0.1-0.1,0.1-0.1H22c0.1,0,0.1,0.1,0.1,0.1
						S22,25.3,22,25.3z"/>
				</g>
				<g id="XMLID_711_">
					<path id="XMLID_378_" class="st0" d="M15.7,25.3h-1.1c-0.1,0-0.1-0.1-0.1-0.1s0.1-0.1,0.1-0.1h1.1c0.1,0,0.1,0.1,0.1,0.1
						C15.9,25.2,15.8,25.3,15.7,25.3z"/>
				</g>
				<g id="XMLID_710_">
					<path id="XMLID_374_" class="st0" d="M19.7,25c0-1-0.7-1.9-1.6-2.2h0c-0.1,0-0.3-0.1-0.5-0.1c-0.4,0-0.8,0.1-1.1,0.4
						c-0.5,0.4-0.9,1-1,1.7c0,0.1,0,0.1,0,0.2c0,0,0,0.1,0,0.1c0,0,0,0.1,0,0.1c0,0.3,0.1,0.6,0.2,0.9c0.3,0.8,1,1.3,1.9,1.3
						c0.2,0,0.4,0,0.6-0.1c0.1,0,0.2-0.1,0.3-0.1c0.7-0.3,1.2-1.1,1.2-2c0,0,0-0.1,0-0.1C19.8,25.1,19.8,25.1,19.7,25z M18.4,27
						c-0.2,0.1-0.4,0.2-0.7,0.2c0,0,0,0,0,0c-0.5,0-1-0.3-1.3-0.7l0,0c-0.3-0.4-0.5-0.8-0.5-1.4c0-0.2,0-0.3,0.1-0.5
						c0.2-0.9,0.9-1.6,1.7-1.6c1,0,1.8,0.9,1.8,2C19.4,26,19,26.7,18.4,27z"/>
				</g>
				<g id="XMLID_709_">
					<path id="XMLID_369_" class="st0" d="M26,25c0-1.2-1-2.2-2.1-2.2c-1.1,0-2.1,1-2.1,2.2c0,0,0,0.1,0,0.1c0,0,0,0.1,0,0.1
						c0.1,1.2,1,2.2,2.1,2.2c1.1,0,2-1,2.1-2.2c0,0,0-0.1,0-0.1C26,25.1,26,25.1,26,25z M23.9,27.2c-1,0-1.8-0.9-1.8-2.1
						c0-1.1,0.8-2,1.8-2c1,0,1.8,0.9,1.8,2C25.7,26.3,24.9,27.2,23.9,27.2z"/>
				</g>
			</g>
		</g>
	</g>
</g>
</svg>
