<?xml version="1.0" encoding="utf-8"?>
<!-- Generator: Adobe Illustrator 21.0.0, SVG Export Plug-In . SVG Version: 6.00 Build 0)  -->
<svg version="1.1" id="Capa_1" xmlns="http://www.w3.org/2000/svg" xmlns:xlink="http://www.w3.org/1999/xlink" x="0px" y="0px"
	 viewBox="0 0 46 46" style="enable-background:new 0 0 46 46;" xml:space="preserve">
<style type="text/css">
	.st0{fill:#FFFFFF;}
</style>
<g>
	<g>
		<g>
			<path class="st0" d="M9.6,44.7c-1.2,1.2-2.9,1.5-4.4,0.9c-1.5-0.6-2.5-2.1-2.5-3.7V4c0-1.6,1-3.1,2.5-3.7C6.7-0.3,8.5,0,9.6,1.2
				l17.9,18c2.1,2.1,2.1,5.5,0,7.6L9.6,44.7z"/>
		</g>
		<g>
			<g>
				<path class="st0" d="M38.3,46c-2.8,0-5-2.2-5-5V5c0-2.8,2.2-5,5-5c2.8,0,5,2.2,5,5v36C43.3,43.7,41,46,38.3,46z"/>
			</g>
		</g>
	</g>
</g>
</svg>
